<?xml version="1.0" encoding="utf-8"?>
<!-- Generator: Adobe Illustrator 14.0.0, SVG Export Plug-In  -->
<!DOCTYPE svg PUBLIC "-//W3C//DTD SVG 1.1//EN" "http://www.w3.org/Graphics/SVG/1.1/DTD/svg11.dtd" [
	<!ENTITY ns_flows "http://ns.adobe.com/Flows/1.0/">
]>
<svg version="1.1"
	 xmlns="http://www.w3.org/2000/svg" xmlns:xlink="http://www.w3.org/1999/xlink" xmlns:a="http://ns.adobe.com/AdobeSVGViewerExtensions/3.0/"
	 x="0px" y="0px" width="213px" height="213px" viewBox="-1.827 -1.842 213 213" enable-background="new -1.827 -1.842 213 213"
	 xml:space="preserve">
<defs>
</defs>
<circle fill="#1C75A2" cx="104.813" cy="104.813" r="104.813"/>
<path fill="#FFFFFF" d="M62.956,36.327l-0.035,2.32l0.158,4.141l0.148,3.234c0,0.586-0.172,0.879-0.518,0.879
	c-0.199,0-0.346-0.094-0.439-0.281s-0.141-0.396-0.141-0.625l0.141-2.873c0-0.621-0.041-1.557-0.123-2.805s-0.123-2.182-0.123-2.803
	l0.025-1.574c0-0.861-0.055-1.42-0.166-1.678l-0.977,0.096c-0.152,0-0.288-0.045-0.408-0.136s-0.18-0.208-0.18-0.352
	s0.143-0.265,0.43-0.364c0.293-0.105,0.645-0.182,1.055-0.229c0.721-0.082,1.328-0.123,1.82-0.123c0.146,0,0.279,0.048,0.399,0.145
	s0.181,0.219,0.181,0.365s-0.053,0.262-0.158,0.347s-0.234,0.128-0.387,0.128l-0.643-0.035c-0.082,0-0.143,0.002-0.184,0.008
	C62.915,34.804,62.956,35.542,62.956,36.327z"/>
<path fill="#FFFFFF" d="M67.034,40.187l-0.449-0.018c-0.176,0-0.299,0.043-0.369,0.131v5.555c0.615-0.035,0.949-0.053,1.002-0.053
	c0.686,0,1.029,0.158,1.029,0.475v0.063c-0.082,0.164-0.223,0.289-0.422,0.377s-0.375,0.139-0.527,0.15s-0.35,0.018-0.59,0.018
	h-0.563c-0.445,0-0.721-0.088-0.826-0.264c-0.047-0.082-0.07-0.191-0.07-0.326V35.835c0-0.205-0.041-0.51-0.123-0.914
	s-0.123-0.711-0.123-0.922v-0.063c0.199-0.328,0.35-0.539,0.449-0.633l1.336-0.158c0.182,0,0.364,0.055,0.549,0.163
	s0.277,0.251,0.277,0.427c0,0.357-0.273,0.535-0.818,0.535l-0.518-0.018c-0.088,0-0.152,0.004-0.193,0.01l0.141,2.971
	c0,0.24-0.016,0.59-0.045,1.05s-0.043,0.796-0.043,1.007c0.064-0.012,0.152-0.033,0.264-0.063c0.246-0.064,0.438-0.096,0.575-0.096
	s0.261,0.049,0.369,0.148s0.163,0.221,0.163,0.361s-0.045,0.266-0.133,0.377S67.175,40.187,67.034,40.187z"/>
<path fill="#FFFFFF" d="M70.022,37.997l-0.158,1.258v0.43c0,1.395,0.03,2.318,0.092,2.77s0.125,0.855,0.189,1.213
	s0.147,0.662,0.25,0.914s0.225,0.488,0.365,0.711c0.281,0.445,0.67,0.668,1.168,0.668c0.205,0,0.461-0.106,0.766-0.32
	s0.535-0.32,0.693-0.32s0.328,0.09,0.51,0.271c0,0.604-0.342,1.035-1.027,1.293c-0.34,0.123-0.709,0.184-1.107,0.184
	s-0.738-0.08-1.02-0.241s-0.516-0.369-0.703-0.624s-0.352-0.582-0.492-0.98s-0.252-0.793-0.334-1.186
	c-0.07-0.398-0.129-0.855-0.176-1.371c-0.07-0.867-0.109-1.816-0.115-2.848l0.018-2.154c0-0.686,0.041-1.238,0.123-1.66
	c-0.035-0.193-0.053-0.381-0.053-0.563c0-0.738,0.275-1.326,0.826-1.763s1.23-0.655,2.039-0.655c0.287,0,0.568,0.081,0.844,0.242
	s0.414,0.373,0.414,0.637c0,0.129-0.051,0.229-0.15,0.299s-0.268,0.105-0.505,0.105s-0.399-0.072-0.487-0.219v0.008h-0.246v-0.043
	c-0.697,0-1.172,0.217-1.424,0.65c-0.234,0.398-0.352,1.084-0.352,2.057L70.022,37.997z"/>
<path fill="#FFFFFF" d="M78.046,47.05c-0.305,0-0.457-0.199-0.457-0.598c0-2.285-0.053-4.4-0.158-6.346
	c-0.322-0.059-0.623-0.088-0.904-0.088s-0.533,0.047-0.756,0.141c0,0.668,0.049,1.68,0.148,3.033s0.15,2.375,0.15,3.066
	c0,0.117-0.035,0.227-0.105,0.326s-0.164,0.148-0.281,0.148c-0.328,0.006-0.568-1.021-0.721-3.084
	c-0.205-2.795-0.309-6.176-0.309-10.143c0-0.217,0.104-0.326,0.309-0.326c0.111,0,0.23,0.031,0.359,0.093s0.221,0.128,0.273,0.198
	c-0.041,0.428-0.063,0.879-0.063,1.354l0.123,3.699l-0.018,0.678c0,0.17,0.012,0.324,0.035,0.465l1.75-0.131l-0.07-5.906v-0.475
	c0.457,0,0.729,0.205,0.816,0.615c0.041,0.199,0.063,0.705,0.063,1.52s0.057,2.542,0.171,5.182s0.171,4.615,0.171,5.928
	c0,0.158-0.049,0.307-0.148,0.444S78.198,47.05,78.046,47.05z"/>
<path fill="#FFFFFF" d="M79.69,37.347l0.123-3.305v-0.113c0-0.598,0.131-0.896,0.395-0.896c0.24,0,0.563,0.557,0.967,1.67
	c0.738,2.021,1.623,5.357,2.654,10.01l0.018,0.088l0.07-6.275v-5.326c0.07-0.299,0.268-0.447,0.59-0.447s0.482,0.234,0.482,0.703
	v0.105c-0.07,0.146-0.105,0.322-0.105,0.527l-0.113,6.652v5.502c0,0.182-0.051,0.361-0.15,0.537s-0.223,0.264-0.369,0.264
	c-0.252,0-0.744-1.235-1.477-3.705s-1.455-5.125-2.17-7.967v5.906c0,0.574,0.042,1.43,0.127,2.566s0.127,1.992,0.127,2.566
	c0,0.111-0.066,0.203-0.201,0.276s-0.307,0.11-0.515,0.11s-0.312-0.094-0.312-0.281l0.088-1.293c0-0.621-0.039-1.629-0.115-3.023
	s-0.113-2.246-0.113-2.557V37.347z"/>
<path fill="#FFFFFF" d="M88.224,34.104l-0.316-0.01c-0.117,0-0.203,0.025-0.259,0.075s-0.083,0.147-0.083,0.294
	c0,1.172,0.072,2.928,0.219,5.266s0.221,4.092,0.221,5.264v0.695c0.123-0.018,0.246-0.027,0.369-0.027
	c0.498,0,0.746,0.211,0.746,0.633v0.105l-0.447,0.309l-1.223,0.043c-1.037,0-1.555-0.178-1.555-0.535
	c0-0.287,0.182-0.432,0.545-0.432l0.377,0.027c0.176,0,0.264-0.141,0.264-0.422c0-0.926-0.055-2.313-0.166-4.162
	s-0.168-3.236-0.168-4.162l0.035-1.836c0-0.387-0.014-0.721-0.043-1.002c-0.158,0.053-0.299,0.078-0.422,0.078
	c-0.281,0-0.422-0.143-0.422-0.43c0-0.146,0.09-0.274,0.271-0.383s0.408-0.186,0.678-0.232c0.504-0.088,0.877-0.133,1.12-0.133
	s0.417,0.049,0.522,0.146s0.158,0.211,0.158,0.343s-0.039,0.246-0.118,0.343S88.347,34.104,88.224,34.104z"/>
<path fill="#FFFFFF" d="M89.938,37.532c0-3.07,0.662-4.605,1.986-4.605c0.668,0,1.195,0.24,1.582,0.721
	c0.375,0.48,0.639,1.084,0.791,1.811c0.164,0.814,0.252,1.512,0.264,2.092s0.023,1.068,0.035,1.467
	c0.006,0.199,0.008,0.396,0.008,0.59c-0.006,0.188-0.008,0.375-0.008,0.563c-0.012,0.375-0.016,0.646-0.01,0.816v0.809
	c0,1.014-0.064,1.828-0.193,2.443s-0.434,1.258-0.914,1.926c0.012,0.047,0.034,0.166,0.066,0.359s0.066,0.379,0.102,0.555
	s0.082,0.357,0.141,0.545c0.123,0.428,0.275,0.641,0.457,0.641h0.07c0.375,0,0.598,0.049,0.668,0.146s0.105,0.194,0.105,0.294
	c0,0.369-0.268,0.555-0.801,0.555c-0.205,0-0.453-0.086-0.746-0.256v-0.008c-0.328-0.152-0.557-0.42-0.686-0.801
	c-0.1-0.299-0.172-0.611-0.216-0.939s-0.077-0.545-0.101-0.65h-0.738c-1.143-0.762-1.775-2.01-1.898-3.744
	c-0.023-0.328-0.035-0.703-0.035-1.125l0.088-2.936L89.938,37.532z M93.603,39.474c0.006-0.24,0.01-0.475,0.01-0.703
	c0-3.299-0.613-4.947-1.838-4.947c-0.217,0-0.4,0.311-0.553,0.932c-0.152,0.615-0.258,1.389-0.316,2.32
	c-0.105,1.553-0.157,2.664-0.154,3.335s0.01,1.138,0.021,1.401s0.035,0.6,0.07,1.007s0.093,0.784,0.172,1.13s0.176,0.681,0.29,1.006
	s0.27,0.588,0.466,0.787s0.418,0.311,0.664,0.334v-0.018c0.088-0.152,0.252-0.229,0.492-0.229v0.008
	c0.451-0.416,0.676-1.061,0.676-1.934V39.474z"/>
<path fill="#FFFFFF" d="M95.774,36.978l0.018-2.813c-0.088-0.1-0.133-0.223-0.133-0.369s0.052-0.275,0.154-0.387
	s0.225-0.166,0.365-0.166c0.434,0,0.65,0.428,0.65,1.283l0.166,6.258c0.07,0.158,0.131,0.477,0.181,0.957s0.075,0.854,0.075,1.121
	s0.042,0.595,0.127,0.984s0.202,0.783,0.352,1.182s0.352,0.738,0.606,1.02s0.497,0.422,0.726,0.422s0.398-0.054,0.51-0.162
	s0.188-0.262,0.229-0.461c0.064-0.316,0.096-0.648,0.096-0.994v-3.516c0-0.381-0.037-0.945-0.113-1.695s-0.115-1.316-0.115-1.697
	v-0.123l-0.035-1.045l-0.131-3.086c0-0.146,0.072-0.265,0.219-0.355s0.299-0.137,0.457-0.137l0.439,0.422v0.299l-0.131,1.1
	c0,1.002,0.054,2.51,0.162,4.525s0.162,3.38,0.162,4.092s-0.01,1.187-0.03,1.424s-0.065,0.49-0.136,0.76s-0.168,0.492-0.291,0.668
	c-0.287,0.41-0.727,0.615-1.318,0.615c-0.732,0.006-1.32-0.313-1.766-0.957c-0.469-0.68-0.797-1.494-0.984-2.443
	c-0.223-1.119-0.357-2.102-0.404-2.945C95.81,39.485,95.774,38.226,95.774,36.978z"/>
<path fill="#FFFFFF" d="M104.036,40.187l-0.449-0.018c-0.176,0-0.299,0.043-0.369,0.131v5.555c0.615-0.035,0.949-0.053,1.002-0.053
	c0.686,0,1.029,0.158,1.029,0.475v0.063c-0.082,0.164-0.223,0.289-0.422,0.377s-0.375,0.139-0.527,0.15s-0.35,0.018-0.59,0.018
	h-0.563c-0.445,0-0.721-0.088-0.826-0.264c-0.047-0.082-0.07-0.191-0.07-0.326V35.835c0-0.205-0.041-0.51-0.123-0.914
	s-0.123-0.711-0.123-0.922v-0.063c0.199-0.328,0.35-0.539,0.449-0.633l1.336-0.158c0.182,0,0.364,0.055,0.549,0.163
	s0.277,0.251,0.277,0.427c0,0.357-0.273,0.535-0.818,0.535l-0.518-0.018c-0.088,0-0.152,0.004-0.193,0.01l0.141,2.971
	c0,0.24-0.016,0.59-0.045,1.05s-0.043,0.796-0.043,1.007c0.064-0.012,0.152-0.033,0.264-0.063c0.246-0.064,0.438-0.096,0.575-0.096
	s0.261,0.049,0.369,0.148s0.163,0.221,0.163,0.361s-0.045,0.266-0.133,0.377S104.177,40.187,104.036,40.187z"/>
<path fill="#FFFFFF" d="M105.812,46.567c0-0.322,0.135-0.484,0.404-0.484c0.135,0,0.312,0.046,0.531,0.137s0.41,0.137,0.571,0.137
	s0.335-0.104,0.522-0.309s0.334-0.459,0.439-0.764c0.217-0.621,0.326-1.183,0.326-1.684s-0.088-1.039-0.264-1.613
	s-0.391-1.113-0.643-1.617s-0.506-1.008-0.764-1.512c-0.609-1.201-0.912-2.297-0.906-3.287c-0.006-0.938,0.291-1.672,0.889-2.205
	c0.316-0.281,0.688-0.422,1.115-0.422c0.217,0,0.428,0.06,0.633,0.18s0.35,0.277,0.432,0.471l-0.309,0.387
	c-0.299,0-0.533-0.059-0.703-0.176c-0.223,0.023-0.416,0.129-0.58,0.316c-0.299,0.346-0.447,0.771-0.447,1.278
	s0.064,1.001,0.193,1.481s0.289,0.91,0.482,1.291s0.402,0.795,0.625,1.24c0.229,0.445,0.439,0.873,0.633,1.283
	c0.451,0.949,0.676,1.975,0.676,3.076c0.006,0.773-0.189,1.518-0.588,2.232c-0.188,0.34-0.445,0.619-0.773,0.839
	s-0.695,0.329-1.1,0.329c-0.434,0-0.774-0.064-1.023-0.193S105.812,46.714,105.812,46.567z"/>
<path fill="#FFFFFF" d="M112.579,36.978l0.018-2.813c-0.088-0.1-0.133-0.223-0.133-0.369s0.052-0.275,0.154-0.387
	s0.225-0.166,0.365-0.166c0.434,0,0.65,0.428,0.65,1.283l0.166,6.258c0.07,0.158,0.131,0.477,0.181,0.957s0.075,0.854,0.075,1.121
	s0.042,0.595,0.127,0.984s0.202,0.783,0.352,1.182s0.352,0.738,0.606,1.02s0.497,0.422,0.726,0.422s0.398-0.054,0.51-0.162
	s0.188-0.262,0.229-0.461c0.064-0.316,0.096-0.648,0.096-0.994v-3.516c0-0.381-0.037-0.945-0.113-1.695s-0.115-1.316-0.115-1.697
	v-0.123l-0.035-1.045l-0.131-3.086c0-0.146,0.072-0.265,0.219-0.355s0.299-0.137,0.457-0.137l0.439,0.422v0.299l-0.131,1.1
	c0,1.002,0.054,2.51,0.162,4.525s0.162,3.38,0.162,4.092s-0.01,1.187-0.03,1.424s-0.065,0.49-0.136,0.76s-0.168,0.492-0.291,0.668
	c-0.287,0.41-0.727,0.615-1.318,0.615c-0.732,0.006-1.32-0.313-1.766-0.957c-0.469-0.68-0.797-1.494-0.984-2.443
	c-0.223-1.119-0.357-2.102-0.404-2.945C112.614,39.485,112.579,38.226,112.579,36.978z"/>
<path fill="#FFFFFF" d="M121.087,36.327l-0.035,2.32l0.158,4.141l0.148,3.234c0,0.586-0.172,0.879-0.518,0.879
	c-0.199,0-0.346-0.094-0.439-0.281s-0.141-0.396-0.141-0.625l0.141-2.873c0-0.621-0.041-1.557-0.123-2.805s-0.123-2.182-0.123-2.803
	l0.025-1.574c0-0.861-0.055-1.42-0.166-1.678l-0.977,0.096c-0.152,0-0.288-0.045-0.408-0.136s-0.18-0.208-0.18-0.352
	s0.143-0.265,0.43-0.364c0.293-0.105,0.645-0.182,1.055-0.229c0.721-0.082,1.328-0.123,1.82-0.123c0.146,0,0.279,0.048,0.399,0.145
	s0.181,0.219,0.181,0.365s-0.053,0.262-0.158,0.347s-0.234,0.128-0.387,0.128l-0.643-0.035c-0.082,0-0.143,0.002-0.184,0.008
	C121.046,34.804,121.087,35.542,121.087,36.327z"/>
<path fill="#FFFFFF" d="M125.235,34.104l-0.316-0.01c-0.117,0-0.204,0.025-0.26,0.075s-0.084,0.147-0.084,0.294
	c0,1.172,0.074,2.928,0.221,5.266s0.219,4.092,0.219,5.264v0.695c0.123-0.018,0.246-0.027,0.369-0.027
	c0.498,0,0.748,0.211,0.748,0.633v0.105l-0.449,0.309l-1.221,0.043c-1.037,0-1.557-0.178-1.557-0.535
	c0-0.287,0.182-0.432,0.545-0.432l0.379,0.027c0.176,0,0.264-0.141,0.264-0.422c0-0.926-0.057-2.313-0.168-4.162
	s-0.166-3.236-0.166-4.162l0.035-1.836c0-0.387-0.016-0.721-0.045-1.002c-0.158,0.053-0.299,0.078-0.422,0.078
	c-0.281,0-0.422-0.143-0.422-0.43c0-0.146,0.092-0.274,0.273-0.383s0.406-0.186,0.676-0.232c0.504-0.088,0.878-0.133,1.121-0.133
	s0.418,0.049,0.523,0.146s0.158,0.211,0.158,0.343s-0.04,0.246-0.119,0.343S125.358,34.104,125.235,34.104z"/>
<path fill="#FFFFFF" d="M128.065,39.966l0.018,0.572v0.078c0.047,1.043,0.07,2.607,0.07,4.693v0.457h1.371
	c0.258,0.176,0.387,0.344,0.387,0.502s-0.045,0.288-0.133,0.391s-0.178,0.154-0.271,0.154s-0.203-0.021-0.326-0.063
	c-0.1,0.023-0.213,0.035-0.342,0.035l-0.58-0.025c-0.123,0.146-0.277,0.219-0.462,0.219s-0.34-0.057-0.466-0.171
	s-0.189-0.247-0.189-0.399l0.115-0.791c0-1.365-0.061-3.412-0.181-6.14s-0.181-4.774-0.181-6.14c0-0.111,0.045-0.2,0.133-0.268
	s0.197-0.102,0.329-0.102s0.252,0.051,0.36,0.15s0.162,0.223,0.162,0.369L128.065,39.966z"/>
<path fill="#FFFFFF" d="M132.812,34.104l-0.316-0.01c-0.117,0-0.204,0.025-0.26,0.075s-0.084,0.147-0.084,0.294
	c0,1.172,0.074,2.928,0.221,5.266s0.219,4.092,0.219,5.264v0.695c0.123-0.018,0.246-0.027,0.369-0.027
	c0.498,0,0.748,0.211,0.748,0.633v0.105l-0.449,0.309l-1.221,0.043c-1.037,0-1.557-0.178-1.557-0.535
	c0-0.287,0.182-0.432,0.545-0.432l0.379,0.027c0.176,0,0.264-0.141,0.264-0.422c0-0.926-0.057-2.313-0.168-4.162
	s-0.166-3.236-0.166-4.162l0.035-1.836c0-0.387-0.016-0.721-0.045-1.002c-0.158,0.053-0.299,0.078-0.422,0.078
	c-0.281,0-0.422-0.143-0.422-0.43c0-0.146,0.092-0.274,0.273-0.383s0.406-0.186,0.676-0.232c0.504-0.088,0.878-0.133,1.121-0.133
	s0.418,0.049,0.523,0.146s0.158,0.211,0.158,0.343s-0.04,0.246-0.119,0.343S132.935,34.104,132.812,34.104z"/>
<path fill="#FFFFFF" d="M134.296,46.567c0-0.322,0.135-0.484,0.404-0.484c0.135,0,0.313,0.046,0.531,0.137
	c0.221,0.091,0.41,0.137,0.572,0.137c0.16,0,0.336-0.104,0.523-0.309s0.334-0.459,0.439-0.764c0.217-0.621,0.324-1.183,0.324-1.684
	s-0.088-1.039-0.264-1.613s-0.389-1.113-0.641-1.617s-0.508-1.008-0.766-1.512c-0.609-1.201-0.91-2.297-0.904-3.287
	c-0.006-0.938,0.289-1.672,0.887-2.205c0.316-0.281,0.689-0.422,1.117-0.422c0.217,0,0.428,0.06,0.633,0.18s0.348,0.277,0.43,0.471
	l-0.307,0.387c-0.299,0-0.533-0.059-0.703-0.176c-0.223,0.023-0.416,0.129-0.58,0.316c-0.299,0.346-0.449,0.771-0.449,1.278
	s0.064,1.001,0.193,1.481s0.291,0.91,0.484,1.291s0.4,0.795,0.623,1.24c0.229,0.445,0.439,0.873,0.633,1.283
	c0.451,0.949,0.678,1.975,0.678,3.076c0.006,0.773-0.191,1.518-0.59,2.232c-0.188,0.34-0.445,0.619-0.773,0.839
	s-0.693,0.329-1.098,0.329c-0.434,0-0.775-0.064-1.025-0.193C134.421,46.851,134.296,46.714,134.296,46.567z"/>
<path fill="#FFFFFF" d="M141.134,40.187l-0.447-0.018c-0.176,0-0.299,0.043-0.369,0.131v5.555c0.615-0.035,0.949-0.053,1.002-0.053
	c0.686,0,1.027,0.158,1.027,0.475v0.063c-0.082,0.164-0.223,0.289-0.422,0.377s-0.375,0.139-0.527,0.15s-0.348,0.018-0.588,0.018
	h-0.563c-0.445,0-0.721-0.088-0.826-0.264c-0.047-0.082-0.07-0.191-0.07-0.326V35.835c0-0.205-0.041-0.51-0.123-0.914
	s-0.123-0.711-0.123-0.922v-0.063c0.199-0.328,0.348-0.539,0.447-0.633l1.336-0.158c0.182,0,0.365,0.055,0.549,0.163
	c0.186,0.108,0.277,0.251,0.277,0.427c0,0.357-0.271,0.535-0.816,0.535l-0.52-0.018c-0.088,0-0.152,0.004-0.193,0.01l0.141,2.971
	c0,0.24-0.014,0.59-0.043,1.05s-0.045,0.796-0.045,1.007c0.064-0.012,0.152-0.033,0.264-0.063c0.246-0.064,0.438-0.096,0.576-0.096
	c0.137,0,0.26,0.049,0.369,0.148c0.107,0.1,0.162,0.221,0.162,0.361s-0.043,0.266-0.131,0.377S141.274,40.187,141.134,40.187z
	 M139.886,31.88c-0.059-0.047-0.088-0.102-0.088-0.166s0.084-0.175,0.25-0.33c0.168-0.155,0.545-0.484,1.135-0.988
	c0.588-0.504,0.945-0.813,1.068-0.924c0.07-0.023,0.148-0.035,0.236-0.035s0.193,0.075,0.316,0.225s0.186,0.295,0.186,0.436
	s-0.045,0.24-0.133,0.299c-0.457,0.334-1.33,0.84-2.619,1.52c-0.047,0.023-0.102,0.035-0.166,0.035S139.944,31.927,139.886,31.88z"
	/>
<path fill="#FFFFFF" d="M145.151,40.187l-0.449-0.018c-0.176,0-0.299,0.043-0.369,0.131v5.555c0.615-0.035,0.949-0.053,1.002-0.053
	c0.686,0,1.029,0.158,1.029,0.475v0.063c-0.082,0.164-0.223,0.289-0.422,0.377s-0.375,0.139-0.527,0.15s-0.35,0.018-0.59,0.018
	h-0.563c-0.445,0-0.721-0.088-0.826-0.264c-0.047-0.082-0.07-0.191-0.07-0.326V35.835c0-0.205-0.041-0.51-0.123-0.914
	s-0.123-0.711-0.123-0.922v-0.063c0.199-0.328,0.35-0.539,0.449-0.633l1.336-0.158c0.182,0,0.363,0.055,0.549,0.163
	c0.184,0.108,0.277,0.251,0.277,0.427c0,0.357-0.273,0.535-0.818,0.535l-0.518-0.018c-0.088,0-0.152,0.004-0.193,0.01l0.141,2.971
	c0,0.24-0.016,0.59-0.045,1.05s-0.043,0.796-0.043,1.007c0.064-0.012,0.152-0.033,0.264-0.063c0.246-0.064,0.438-0.096,0.574-0.096
	c0.139,0,0.262,0.049,0.369,0.148c0.109,0.1,0.164,0.221,0.164,0.361s-0.045,0.266-0.133,0.377S145.292,40.187,145.151,40.187z"/>
<path fill="#FFFFFF" d="M146.927,46.567c0-0.322,0.135-0.484,0.404-0.484c0.135,0,0.311,0.046,0.531,0.137
	c0.219,0.091,0.41,0.137,0.57,0.137c0.162,0,0.336-0.104,0.523-0.309s0.334-0.459,0.439-0.764c0.217-0.621,0.326-1.183,0.326-1.684
	s-0.088-1.039-0.264-1.613s-0.391-1.113-0.643-1.617s-0.506-1.008-0.764-1.512c-0.609-1.201-0.912-2.297-0.906-3.287
	c-0.006-0.938,0.291-1.672,0.889-2.205c0.316-0.281,0.688-0.422,1.115-0.422c0.217,0,0.428,0.06,0.633,0.18s0.35,0.277,0.432,0.471
	l-0.309,0.387c-0.299,0-0.533-0.059-0.703-0.176c-0.223,0.023-0.416,0.129-0.58,0.316c-0.299,0.346-0.447,0.771-0.447,1.278
	s0.064,1.001,0.193,1.481s0.289,0.91,0.482,1.291s0.402,0.795,0.625,1.24c0.229,0.445,0.439,0.873,0.633,1.283
	c0.451,0.949,0.676,1.975,0.676,3.076c0.006,0.773-0.189,1.518-0.588,2.232c-0.188,0.34-0.445,0.619-0.773,0.839
	s-0.695,0.329-1.1,0.329c-0.434,0-0.775-0.064-1.023-0.193C147.05,46.851,146.927,46.714,146.927,46.567z"/>
<path fill="#FFFFFF" d="M30.753,77.405c0.585,0,0.963,0.378,0.963,0.963s-0.378,0.964-0.963,0.964c-0.586,0-0.964-0.379-0.964-0.964
	S30.167,77.405,30.753,77.405z"/>
<path fill="#FFFFFF" d="M35.892,75.8v3.343c0,0.991,0.447,1.375,1.159,1.375s1.056-0.512,1.056-1.375V75.8h0.959v3.414
	c0,1.111-0.535,2.047-2.118,2.047c-1.512,0-2.007-0.936-2.007-2.047V75.8H35.892z"/>
<path fill="#FFFFFF" d="M39.628,77.231h0.72l0.16-0.936l0.76-0.168v1.104h0.983l-0.112,0.655h-0.871v2.351
	c0,0.28,0.176,0.328,0.359,0.328c0.152,0,0.304-0.024,0.424-0.056c0.072-0.017,0.136-0.032,0.2-0.057l0.151,0.608
	c-0.088,0.04-0.184,0.071-0.288,0.096c-0.184,0.056-0.439,0.088-0.735,0.088c-0.6,0-1.031-0.24-1.031-0.903v-2.455h-0.72V77.231z"/>
<path fill="#FFFFFF" d="M43.939,76c0,0.319-0.184,0.567-0.56,0.567c-0.344,0-0.536-0.248-0.536-0.543
	c0-0.328,0.184-0.576,0.56-0.576C43.747,75.448,43.939,75.68,43.939,76z M42.932,80.342v-3.11h0.92v3.022
	c0,0.248,0.071,0.312,0.224,0.312c0.04,0,0.096,0,0.136-0.008c0.024,0,0.048,0,0.072-0.008l0.096,0.583
	c-0.04,0.024-0.088,0.04-0.144,0.057c-0.096,0.031-0.24,0.056-0.432,0.056C43.235,81.245,42.932,80.877,42.932,80.342z"/>
<path fill="#FFFFFF" d="M44.979,80.342v-4.766l0.92-0.168v4.846c0,0.248,0.096,0.327,0.279,0.327c0.104,0,0.208-0.008,0.296-0.031
	l0.128-0.032l0.112,0.584l-0.232,0.071c-0.151,0.04-0.359,0.072-0.615,0.072C45.26,81.245,44.979,80.877,44.979,80.342z"/>
<path fill="#FFFFFF" d="M48.331,76c0,0.319-0.184,0.567-0.56,0.567c-0.344,0-0.536-0.248-0.536-0.543
	c0-0.328,0.184-0.576,0.56-0.576C48.139,75.448,48.331,75.68,48.331,76z M47.323,80.342v-3.11h0.92v3.022
	c0,0.248,0.071,0.312,0.224,0.312c0.04,0,0.096,0,0.136-0.008c0.024,0,0.048,0,0.072-0.008l0.096,0.583
	c-0.04,0.024-0.088,0.04-0.144,0.057c-0.096,0.031-0.24,0.056-0.432,0.056C47.627,81.245,47.323,80.877,47.323,80.342z"/>
<path fill="#FFFFFF" d="M51.45,77.295c0.136,0.048,0.264,0.097,0.384,0.152l-0.28,0.632c-0.104-0.048-0.208-0.088-0.312-0.128
	c-0.184-0.064-0.424-0.136-0.624-0.136c-0.248,0-0.447,0.119-0.447,0.352c0,0.296,0.224,0.535,0.663,0.703
	c0.664,0.256,1.071,0.544,1.071,1.231c0,0.607-0.503,1.191-1.398,1.191c-0.353,0-0.712-0.096-0.976-0.191
	c-0.16-0.057-0.313-0.12-0.448-0.192l0.296-0.68c0.12,0.072,0.248,0.136,0.368,0.192c0.216,0.096,0.464,0.191,0.68,0.191
	c0.376,0,0.544-0.16,0.544-0.407c0-0.28-0.2-0.504-0.584-0.656c-0.823-0.312-1.151-0.663-1.151-1.295
	c0-0.607,0.584-1.119,1.352-1.119C50.906,77.136,51.218,77.207,51.45,77.295z"/>
<path fill="#FFFFFF" d="M54.395,77.136c0.951,0,1.335,0.495,1.335,1.135c0,0.775-0.88,1.415-2.287,1.439
	c0.064,0.487,0.256,0.896,0.88,0.896c0.231,0,0.52-0.064,0.743-0.136c0.136-0.04,0.264-0.088,0.392-0.145l0.24,0.576
	c-0.136,0.072-0.288,0.128-0.447,0.184c-0.28,0.096-0.648,0.185-1.056,0.185c-1.239,0-1.728-0.776-1.728-1.951
	C52.467,77.887,53.307,77.136,54.395,77.136z M53.419,79.126c0.999-0.023,1.391-0.487,1.391-0.855c0-0.312-0.199-0.504-0.487-0.504
	C53.618,77.767,53.442,78.479,53.419,79.126z"/>
<path fill="#FFFFFF" d="M60.69,78.175c-0.16-0.184-0.305-0.328-0.568-0.328c-0.327,0-0.839,0.112-0.839,1.352
	c0,1.247,0.503,1.407,0.879,1.407c0.152,0,0.336-0.04,0.496-0.08c0.096-0.023,0.191-0.048,0.279-0.08l0.225,0.584
	c-0.088,0.048-0.192,0.088-0.313,0.12c-0.199,0.063-0.472,0.12-0.815,0.12c-1.231,0-1.743-0.776-1.743-1.951
	c0-1.407,0.8-2.183,1.831-2.183c0.504,0,0.84,0.199,1.088,0.543L60.69,78.175z"/>
<path fill="#FFFFFF" d="M65.081,79.174c0,1.191-0.6,2.119-1.823,2.119c-1.223,0-1.751-0.775-1.751-2.031
	c0-1.207,0.6-2.126,1.823-2.126S65.081,77.903,65.081,79.174z M62.499,79.183c0,0.791,0.159,1.431,0.839,1.431
	c0.608,0,0.752-0.592,0.752-1.359c0-0.799-0.16-1.438-0.84-1.438C62.643,77.815,62.499,78.415,62.499,79.183z"/>
<path fill="#FFFFFF" d="M68.242,77.231h0.919v2.055c0,0.64,0.097,1.063,0.192,1.327c0.056,0.16,0.128,0.288,0.2,0.376l-0.729,0.288
	c-0.056-0.057-0.111-0.136-0.167-0.225c-0.089-0.151-0.192-0.367-0.232-0.655c-0.288,0.616-0.84,0.863-1.415,0.863
	c-0.36,0-0.632-0.096-0.832-0.296c-0.224-0.224-0.335-0.583-0.335-1.079v-2.654h0.919v2.631c0,0.447,0.144,0.719,0.52,0.719
	c0.472,0,1-0.56,0.96-1.398V77.231z"/>
<path fill="#FFFFFF" d="M71.267,79.006v2.207h-0.919v-2.015c0-0.64-0.104-1.063-0.2-1.327c-0.056-0.152-0.12-0.28-0.192-0.376
	l0.729-0.288l0.151,0.216c0.088,0.152,0.176,0.336,0.232,0.616c0.216-0.607,0.64-0.863,1.151-0.863c0.119,0,0.247,0.023,0.344,0.048
	l0.151,0.04l-0.256,0.896c-0.032-0.009-0.063-0.024-0.104-0.04c-0.064-0.024-0.16-0.048-0.288-0.048
	C71.683,78.071,71.323,78.431,71.267,79.006z"/>
<path fill="#FFFFFF" d="M76.394,79.286c0,0.64,0.097,1.063,0.192,1.327c0.056,0.16,0.128,0.288,0.2,0.376l-0.729,0.288
	c-0.063-0.072-0.128-0.152-0.184-0.248c-0.096-0.16-0.2-0.408-0.224-0.728c-0.184,0.64-0.56,0.959-1.239,0.959
	c-1,0-1.472-0.783-1.472-1.982c0-1.216,0.784-2.111,1.911-2.111c0.32,0,0.695,0.064,1.008,0.12c0.176,0.032,0.352,0.072,0.535,0.112
	V79.286z M75.475,79.046v-1.143c-0.104-0.024-0.36-0.088-0.52-0.088c-0.792,0-1.023,0.583-1.023,1.383
	c0,0.735,0.056,1.415,0.631,1.415C75.083,80.613,75.475,79.83,75.475,79.046z"/>
<path fill="#FFFFFF" d="M78.459,81.213H77.54v-2.015c0-0.64-0.104-1.063-0.2-1.327c-0.056-0.152-0.12-0.28-0.192-0.376l0.729-0.288
	c0.056,0.057,0.104,0.128,0.159,0.216c0.088,0.152,0.176,0.36,0.232,0.64c0.264-0.631,0.799-0.896,1.335-0.896
	c0.544,0,0.815,0.296,0.968,0.736c0.287-0.521,0.768-0.736,1.271-0.736c0.344,0,0.6,0.097,0.783,0.296
	c0.208,0.216,0.312,0.576,0.312,1.08v2.67h-0.919v-2.606c0-0.447-0.112-0.72-0.456-0.72c-0.384,0-0.84,0.44-0.863,1.176v2.15h-0.92
	v-2.606c0-0.447-0.111-0.72-0.456-0.72c-0.415,0-0.903,0.536-0.863,1.375V81.213z"/>
<path fill="#FFFFFF" d="M84.931,81.213h-0.919v-2.015c0-0.64-0.104-1.063-0.2-1.327c-0.056-0.152-0.12-0.28-0.192-0.376l0.729-0.288
	c0.056,0.057,0.104,0.128,0.159,0.216c0.088,0.152,0.176,0.36,0.232,0.64c0.264-0.631,0.799-0.896,1.335-0.896
	c0.544,0,0.815,0.296,0.968,0.736c0.287-0.521,0.768-0.736,1.271-0.736c0.344,0,0.6,0.097,0.783,0.296
	c0.208,0.216,0.312,0.576,0.312,1.08v2.67h-0.919v-2.606c0-0.447-0.112-0.72-0.456-0.72c-0.384,0-0.84,0.44-0.863,1.176v2.15h-0.92
	v-2.606c0-0.447-0.111-0.72-0.456-0.72c-0.415,0-0.903,0.536-0.863,1.375V81.213z"/>
<path fill="#FFFFFF" d="M92.099,77.136c0.951,0,1.335,0.495,1.335,1.135c0,0.775-0.88,1.415-2.287,1.439
	c0.064,0.487,0.256,0.896,0.88,0.896c0.231,0,0.52-0.064,0.743-0.136c0.136-0.04,0.264-0.088,0.392-0.145l0.24,0.576
	c-0.136,0.072-0.288,0.128-0.447,0.184c-0.28,0.096-0.648,0.185-1.056,0.185c-1.239,0-1.728-0.776-1.728-1.951
	C90.171,77.887,91.011,77.136,92.099,77.136z M91.123,79.126c0.999-0.023,1.391-0.487,1.391-0.855c0-0.312-0.199-0.504-0.487-0.504
	C91.322,77.767,91.146,78.479,91.123,79.126z"/>
<path fill="#FFFFFF" d="M95.187,81.213h-0.919v-2.015c0-0.64-0.104-1.063-0.2-1.327c-0.056-0.152-0.12-0.28-0.192-0.376l0.729-0.288
	c0.056,0.057,0.104,0.128,0.159,0.216c0.088,0.152,0.176,0.36,0.232,0.64c0.279-0.631,0.848-0.896,1.423-0.896
	c0.36,0,0.632,0.097,0.832,0.296c0.224,0.225,0.335,0.584,0.335,1.08v2.67h-0.919v-2.582c0-0.448-0.144-0.736-0.52-0.736
	c-0.472,0-1,0.528-0.96,1.367V81.213z"/>
<path fill="#FFFFFF" d="M98.148,77.231h0.72l0.159-0.936l0.76-0.168v1.104h0.983l-0.111,0.655h-0.872v2.351
	c0,0.28,0.176,0.328,0.36,0.328c0.151,0,0.304-0.024,0.423-0.056c0.072-0.017,0.137-0.032,0.2-0.057l0.152,0.608
	c-0.088,0.04-0.185,0.071-0.288,0.096c-0.184,0.056-0.439,0.088-0.735,0.088c-0.6,0-1.031-0.24-1.031-0.903v-2.455h-0.72V77.231z"/>
<path fill="#FFFFFF" d="M103.483,80.342v-4.766l0.92-0.168v4.846c0,0.248,0.096,0.327,0.279,0.327c0.104,0,0.208-0.008,0.296-0.031
	l0.128-0.032l0.112,0.584l-0.232,0.071c-0.151,0.04-0.359,0.072-0.615,0.072C103.764,81.245,103.483,80.877,103.483,80.342z"/>
<path fill="#FFFFFF" d="M107.547,77.136c0.951,0,1.335,0.495,1.335,1.135c0,0.775-0.88,1.415-2.287,1.439
	c0.064,0.487,0.256,0.896,0.88,0.896c0.231,0,0.52-0.064,0.743-0.136c0.136-0.04,0.264-0.088,0.392-0.145l0.24,0.576
	c-0.136,0.072-0.288,0.128-0.447,0.184c-0.28,0.096-0.648,0.185-1.056,0.185c-1.239,0-1.728-0.776-1.728-1.951
	C105.619,77.887,106.459,77.136,107.547,77.136z M106.571,79.126c0.999-0.023,1.391-0.487,1.391-0.855
	c0-0.312-0.199-0.504-0.487-0.504C106.771,77.767,106.595,78.479,106.571,79.126z"/>
<path fill="#FFFFFF" d="M111.683,77.295c0.136,0.048,0.264,0.097,0.384,0.152l-0.28,0.632c-0.104-0.048-0.208-0.088-0.312-0.128
	c-0.184-0.064-0.424-0.136-0.624-0.136c-0.248,0-0.447,0.119-0.447,0.352c0,0.296,0.224,0.535,0.663,0.703
	c0.664,0.256,1.071,0.544,1.071,1.231c0,0.607-0.503,1.191-1.398,1.191c-0.353,0-0.712-0.096-0.976-0.191
	c-0.16-0.057-0.313-0.12-0.448-0.192l0.296-0.68c0.12,0.072,0.248,0.136,0.368,0.192c0.216,0.096,0.464,0.191,0.68,0.191
	c0.376,0,0.544-0.16,0.544-0.407c0-0.28-0.2-0.504-0.584-0.656c-0.823-0.312-1.151-0.663-1.151-1.295
	c0-0.607,0.584-1.119,1.352-1.119C111.139,77.136,111.45,77.207,111.683,77.295z"/>
<path fill="#FFFFFF" d="M114.939,80.342v-4.766l0.92-0.168v4.846c0,0.248,0.096,0.327,0.279,0.327c0.104,0,0.208-0.008,0.296-0.031
	l0.128-0.032l0.112,0.584l-0.232,0.071c-0.151,0.04-0.359,0.072-0.615,0.072C115.22,81.245,114.939,80.877,114.939,80.342z"/>
<path fill="#FFFFFF" d="M120.649,79.174c0,1.191-0.6,2.119-1.823,2.119c-1.223,0-1.751-0.775-1.751-2.031
	c0-1.207,0.6-2.126,1.823-2.126S120.649,77.903,120.649,79.174z M118.067,79.183c0,0.791,0.159,1.431,0.839,1.431
	c0.608,0,0.752-0.592,0.752-1.359c0-0.799-0.16-1.438-0.84-1.438C118.211,77.815,118.067,78.415,118.067,79.183z"/>
<path fill="#FFFFFF" d="M123.882,80.43c-0.184,0.544-0.56,0.831-1.199,0.831c-1,0-1.472-0.783-1.472-1.982
	c0-1.216,0.784-2.111,1.911-2.111c0.528,0,1.207,0.152,1.439,0.216l0.128,0.017l-0.04,2.19c-0.024,0.632,0.248,1.04,0.248,1.68
	c0,1.183-0.72,1.759-1.808,1.671c-0.344-0.024-0.647-0.097-0.879-0.185c-0.136-0.04-0.264-0.088-0.384-0.144l0.224-0.703
	c0.439,0.167,0.695,0.271,1.039,0.304c0.92,0.088,1.128-0.752,0.832-1.672C123.897,80.51,123.906,80.47,123.882,80.43z
	 M123.746,79.11v-1.207c-0.104-0.024-0.36-0.088-0.52-0.088c-0.792,0-1.023,0.583-1.023,1.383c0,0.735,0.056,1.415,0.631,1.415
	C123.338,80.613,123.722,79.87,123.746,79.11z"/>
<path fill="#FFFFFF" d="M126.675,76c0,0.319-0.184,0.567-0.56,0.567c-0.344,0-0.536-0.248-0.536-0.543
	c0-0.328,0.184-0.576,0.56-0.576C126.482,75.448,126.675,75.68,126.675,76z M125.667,80.342v-3.11h0.92v3.022
	c0,0.248,0.071,0.312,0.224,0.312c0.04,0,0.096,0,0.136-0.008c0.024,0,0.048,0,0.072-0.008l0.096,0.583
	c-0.04,0.024-0.088,0.04-0.144,0.057c-0.096,0.031-0.24,0.056-0.432,0.056C125.971,81.245,125.667,80.877,125.667,80.342z"/>
<path fill="#FFFFFF" d="M129.914,78.175c-0.16-0.184-0.305-0.328-0.568-0.328c-0.327,0-0.839,0.112-0.839,1.352
	c0,1.247,0.503,1.407,0.879,1.407c0.152,0,0.336-0.04,0.496-0.08c0.096-0.023,0.191-0.048,0.279-0.08l0.225,0.584
	c-0.088,0.048-0.192,0.088-0.313,0.12c-0.199,0.063-0.472,0.12-0.815,0.12c-1.231,0-1.743-0.776-1.743-1.951
	c0-1.407,0.8-2.183,1.831-2.183c0.504,0,0.84,0.199,1.088,0.543L129.914,78.175z"/>
<path fill="#FFFFFF" d="M132.011,76c0,0.319-0.184,0.567-0.56,0.567c-0.344,0-0.536-0.248-0.536-0.543
	c0-0.328,0.184-0.576,0.56-0.576C131.818,75.448,132.011,75.68,132.011,76z M131.003,80.342v-3.11h0.92v3.022
	c0,0.248,0.071,0.312,0.224,0.312c0.04,0,0.096,0,0.136-0.008c0.024,0,0.048,0,0.072-0.008l0.096,0.583
	c-0.04,0.024-0.088,0.04-0.144,0.057c-0.096,0.031-0.24,0.056-0.432,0.056C131.307,81.245,131.003,80.877,131.003,80.342z"/>
<path fill="#FFFFFF" d="M134.778,77.136c0.951,0,1.335,0.495,1.335,1.135c0,0.775-0.88,1.415-2.287,1.439
	c0.064,0.487,0.256,0.896,0.88,0.896c0.231,0,0.52-0.064,0.743-0.136c0.136-0.04,0.264-0.088,0.392-0.145l0.24,0.576
	c-0.136,0.072-0.288,0.128-0.447,0.184c-0.28,0.096-0.648,0.185-1.056,0.185c-1.239,0-1.728-0.776-1.728-1.951
	C132.851,77.887,133.69,77.136,134.778,77.136z M133.803,79.126c0.999-0.023,1.391-0.487,1.391-0.855
	c0-0.312-0.199-0.504-0.487-0.504C134.002,77.767,133.826,78.479,133.803,79.126z"/>
<path fill="#FFFFFF" d="M136.835,80.342v-4.766l0.92-0.168v4.846c0,0.248,0.096,0.327,0.279,0.327c0.104,0,0.208-0.008,0.296-0.031
	l0.128-0.032l0.112,0.584l-0.232,0.071c-0.151,0.04-0.359,0.072-0.615,0.072C137.115,81.245,136.835,80.877,136.835,80.342z"/>
<path fill="#FFFFFF" d="M141.25,77.295c0.136,0.048,0.264,0.097,0.384,0.152l-0.28,0.632c-0.104-0.048-0.208-0.088-0.312-0.128
	c-0.184-0.064-0.424-0.136-0.624-0.136c-0.248,0-0.447,0.119-0.447,0.352c0,0.296,0.224,0.535,0.663,0.703
	c0.664,0.256,1.071,0.544,1.071,1.231c0,0.607-0.503,1.191-1.398,1.191c-0.353,0-0.712-0.096-0.976-0.191
	c-0.16-0.057-0.313-0.12-0.448-0.192l0.296-0.68c0.12,0.072,0.248,0.136,0.368,0.192c0.216,0.096,0.464,0.191,0.68,0.191
	c0.376,0,0.544-0.16,0.544-0.407c0-0.28-0.2-0.504-0.584-0.656c-0.823-0.312-1.151-0.663-1.151-1.295
	c0-0.607,0.584-1.119,1.352-1.119C140.706,77.136,141.018,77.207,141.25,77.295z"/>
<path fill="#FFFFFF" d="M144.587,75.8h0.16c0.199,0,0.384,0,0.567-0.008c0.312,0,0.664-0.008,0.88-0.008
	c1.303,0,1.91,0.615,1.91,1.631c0,0.991-0.688,1.68-2.007,1.68h-0.552v2.118h-0.959V75.8z M145.546,76.479v1.903h0.608
	c0.663,0,0.927-0.4,0.927-0.936c0-0.488-0.231-0.976-1.007-0.976C145.851,76.472,145.674,76.472,145.546,76.479z"/>
<path fill="#FFFFFF" d="M149.986,75.8h0.768l2.079,5.413h-1.023l-0.496-1.415h-1.943l-0.504,1.415h-0.959L149.986,75.8z
	 M151.065,79.086c-0.328-0.936-0.584-1.767-0.712-2.215c-0.151,0.48-0.399,1.296-0.728,2.215H151.065z"/>
<path fill="#FFFFFF" d="M157.736,78.463c0,1.663-0.735,2.798-2.366,2.798c-1.6,0-2.264-0.991-2.264-2.687
	c0-1.671,0.736-2.846,2.367-2.846C157.072,75.729,157.736,76.775,157.736,78.463z M154.146,78.486c0,1.088,0.248,2.031,1.335,2.031
	c0.92,0,1.216-0.84,1.216-1.975c0-1.08-0.248-2.071-1.336-2.071C154.442,76.472,154.146,77.343,154.146,78.486z"/>
<path fill="#FFFFFF" d="M32.737,92.077c-0.064-0.072-0.128-0.152-0.184-0.248c-0.097-0.16-0.2-0.408-0.225-0.728
	c-0.184,0.64-0.56,0.959-1.239,0.959c-0.999,0-1.471-0.783-1.471-1.982c0-1.216,0.783-2.111,1.911-2.111
	c0.191,0,0.407,0.024,0.623,0.057v-1.808l0.92,0.16v3.71c0,0.64,0.096,1.063,0.191,1.327c0.057,0.152,0.128,0.28,0.2,0.376
	L32.737,92.077z M32.153,89.846v-1.143c-0.104-0.024-0.359-0.088-0.52-0.088c-0.791,0-1.023,0.583-1.023,1.383
	c0,0.735,0.056,1.407,0.632,1.407C31.762,91.405,32.153,90.638,32.153,89.846z"/>
<path fill="#FFFFFF" d="M35.834,87.936c0.951,0,1.335,0.495,1.335,1.135c0,0.775-0.879,1.415-2.286,1.439
	c0.063,0.487,0.256,0.896,0.879,0.896c0.232,0,0.521-0.064,0.744-0.136c0.136-0.04,0.264-0.088,0.392-0.145l0.24,0.576
	c-0.137,0.072-0.288,0.128-0.448,0.184c-0.279,0.096-0.647,0.185-1.056,0.185c-1.239,0-1.727-0.776-1.727-1.951
	C33.907,88.687,34.747,87.936,35.834,87.936z M34.858,89.926c1-0.023,1.392-0.487,1.392-0.855c0-0.312-0.2-0.504-0.488-0.504
	C35.059,88.566,34.883,89.278,34.858,89.926z"/>
<path fill="#FFFFFF" d="M39.931,91.142v-4.766l0.92-0.168v4.846c0,0.248,0.096,0.327,0.279,0.327c0.104,0,0.208-0.008,0.296-0.031
	l0.128-0.032l0.112,0.584l-0.232,0.071c-0.151,0.04-0.359,0.072-0.615,0.072C40.211,92.045,39.931,91.677,39.931,91.142z"/>
<path fill="#FFFFFF" d="M45.521,90.086c0,0.64,0.097,1.063,0.192,1.327c0.056,0.16,0.128,0.288,0.2,0.376l-0.729,0.288
	c-0.063-0.072-0.128-0.152-0.184-0.248c-0.096-0.16-0.2-0.408-0.224-0.728c-0.184,0.64-0.56,0.959-1.239,0.959
	c-1,0-1.472-0.783-1.472-1.982c0-1.216,0.784-2.111,1.911-2.111c0.32,0,0.695,0.064,1.008,0.12c0.176,0.032,0.352,0.072,0.535,0.112
	V90.086z M44.602,89.846v-1.143c-0.104-0.024-0.36-0.088-0.52-0.088c-0.792,0-1.023,0.583-1.023,1.383
	c0,0.735,0.056,1.415,0.631,1.415C44.21,91.413,44.602,90.63,44.602,89.846z"/>
<path fill="#FFFFFF" d="M51.653,87.791l-0.45,1.008c-0.198-0.099-0.612-0.324-0.981-0.324c-0.189,0-0.342,0.081-0.342,0.262
	c0,0.188,0.27,0.378,0.675,0.549c0.711,0.297,1.125,0.675,1.125,1.368c0,0.774-0.558,1.449-1.62,1.449
	c-0.828,0-1.494-0.278-1.792-0.414l0.469-1.035c0.117,0.055,0.648,0.369,1.053,0.369c0.253,0,0.433-0.099,0.433-0.288
	c0-0.225-0.226-0.414-0.531-0.531c-0.9-0.359-1.261-0.774-1.261-1.449c0-0.766,0.595-1.342,1.594-1.342
	C50.924,87.412,51.653,87.791,51.653,87.791z"/>
<path fill="#FFFFFF" d="M54.866,87.493h1.422v2.351c0,1.422,0.495,1.881,0.495,1.881l-1.143,0.36c0,0-0.298-0.288-0.424-0.828
	c-0.314,0.558-0.9,0.811-1.53,0.811c-0.945,0-1.296-0.612-1.296-1.567v-3.007h1.431v2.818c0,0.423,0.081,0.702,0.36,0.702
	c0.333,0,0.685-0.486,0.685-1.27V87.493z"/>
<path fill="#FFFFFF" d="M58.906,86.116c0,0.468-0.279,0.819-0.811,0.819c-0.504,0-0.783-0.352-0.783-0.774
	c0-0.478,0.279-0.837,0.819-0.837C58.627,85.324,58.906,85.666,58.906,86.116z M57.403,91.031v-3.538h1.422v3.134
	c0,0.27,0.081,0.351,0.252,0.351c0.091,0,0.207-0.027,0.234-0.036l0.126,0.892c-0.018,0.018-0.405,0.216-0.892,0.216
	C57.871,92.049,57.403,91.671,57.403,91.031z"/>
<path fill="#FFFFFF" d="M59.554,87.529h0.738l0.153-0.927l1.233-0.271v1.197h1.062l-0.171,1.045h-0.891v2.007
	c0,0.262,0.144,0.396,0.414,0.396c0.288,0,0.647-0.099,0.647-0.099l0.243,0.954c-0.243,0.081-0.666,0.216-1.278,0.216
	c-0.9,0-1.44-0.333-1.44-1.225v-2.25h-0.711V87.529z"/>
<path fill="#FFFFFF" d="M65.387,87.403c1.125,0,1.575,0.585,1.575,1.359c0,0.873-0.892,1.558-2.322,1.675
	c0.081,0.36,0.288,0.604,0.738,0.604c0.521,0,1.278-0.288,1.278-0.288l0.27,0.936c0,0-0.819,0.405-1.773,0.405
	c-1.468,0-2.053-0.891-2.053-2.215C63.1,88.268,64.099,87.403,65.387,87.403z M64.567,89.528c0.711-0.019,0.981-0.441,0.981-0.729
	c0-0.225-0.145-0.378-0.343-0.378C64.747,88.421,64.585,89.015,64.567,89.528z"/>
<path fill="#FFFFFF" d="M71.768,85.918h1.323l2.232,6.095H73.82l-0.45-1.467h-1.972l-0.469,1.467h-1.476L71.768,85.918z
	 M73.037,89.447c-0.243-0.702-0.514-1.566-0.648-2.008c-0.135,0.459-0.405,1.314-0.648,2.008H73.037z"/>
<path fill="#FFFFFF" d="M78.949,92.085c-0.009-0.009-0.324-0.315-0.432-0.9c-0.198,0.559-0.585,0.883-1.233,0.883
	c-1.18,0-1.737-0.892-1.737-2.242c0-1.377,0.918-2.395,2.26-2.395c0.107,0,0.242,0.018,0.369,0.027v-1.963l1.422,0.234v4.114
	c0,1.422,0.486,1.872,0.495,1.881L78.949,92.085z M78.176,89.591v-1.044c-0.081-0.036-0.262-0.072-0.369-0.072
	c-0.586,0-0.748,0.531-0.748,1.261c0,0.666,0.027,1.287,0.46,1.287C77.888,91.022,78.176,90.348,78.176,89.591z"/>
<path fill="#FFFFFF" d="M84.629,89.708c0,1.359-0.702,2.395-2.125,2.395c-1.44,0-2.062-0.873-2.062-2.295
	c0-1.369,0.702-2.404,2.134-2.404S84.629,88.268,84.629,89.708z M81.955,89.708c0,0.729,0.117,1.323,0.63,1.323
	c0.441,0,0.54-0.558,0.54-1.233c0-0.738-0.116-1.323-0.63-1.323C82.054,88.475,81.955,89.015,81.955,89.708z"/>
<path fill="#FFFFFF" d="M85.393,85.729l1.422-0.243v2.395c0.226-0.288,0.531-0.45,0.937-0.45c1.135,0,1.692,0.892,1.692,2.251
	c0,1.368-0.918,2.386-2.26,2.386c-0.747,0-1.692-0.226-1.791-0.262V85.729z M86.814,89.996v0.964
	c0.072,0.018,0.252,0.063,0.369,0.063c0.585,0,0.747-0.531,0.747-1.251c0-0.676-0.026-1.297-0.459-1.297
	C87.085,88.475,86.814,89.195,86.814,89.996z"/>
<path fill="#FFFFFF" d="M92.215,87.403c1.126,0,1.576,0.585,1.576,1.359c0,0.873-0.892,1.558-2.323,1.675
	c0.081,0.36,0.288,0.604,0.738,0.604c0.522,0,1.278-0.288,1.278-0.288l0.271,0.936c0,0-0.819,0.405-1.773,0.405
	c-1.468,0-2.053-0.891-2.053-2.215C89.929,88.268,90.928,87.403,92.215,87.403z M91.396,89.528c0.712-0.019,0.981-0.441,0.981-0.729
	c0-0.225-0.144-0.378-0.342-0.378C91.576,88.421,91.414,89.015,91.396,89.528z"/>
<path fill="#FFFFFF" d="M98.538,86.208l0.496,0.552c-0.472,0.384-1.271,1.392-1.271,3.11c0,1.727,0.8,2.734,1.271,3.118
	l-0.496,0.552c-0.584-0.408-1.688-1.583-1.688-3.678C96.851,87.799,97.954,86.616,98.538,86.208z"/>
<path fill="#FFFFFF" d="M99.915,86.6h0.959v5.413h-0.959V86.6z"/>
<path fill="#FFFFFF" d="M101.859,91.142v-4.766l0.92-0.168v4.846c0,0.248,0.096,0.327,0.279,0.327c0.104,0,0.208-0.008,0.296-0.031
	l0.128-0.032l0.112,0.584l-0.232,0.071c-0.151,0.04-0.359,0.072-0.615,0.072C102.14,92.045,101.859,91.677,101.859,91.142z"/>
<path fill="#FFFFFF" d="M104.195,91.142v-4.766l0.92-0.168v4.846c0,0.248,0.096,0.327,0.279,0.327c0.104,0,0.208-0.008,0.296-0.031
	l0.128-0.032l0.112,0.584l-0.232,0.071c-0.151,0.04-0.359,0.072-0.615,0.072C104.476,92.045,104.195,91.677,104.195,91.142z"/>
<path fill="#FFFFFF" d="M108.93,88.031h0.92v2.055c0,0.64,0.096,1.063,0.191,1.327c0.057,0.16,0.128,0.288,0.2,0.376l-0.728,0.288
	c-0.056-0.057-0.112-0.136-0.168-0.225c-0.088-0.151-0.191-0.367-0.231-0.655c-0.288,0.616-0.84,0.863-1.416,0.863
	c-0.359,0-0.631-0.096-0.831-0.296c-0.224-0.224-0.336-0.583-0.336-1.079v-2.654h0.92v2.631c0,0.447,0.144,0.719,0.52,0.719
	c0.472,0,0.999-0.56,0.959-1.398V88.031z"/>
<path fill="#FFFFFF" d="M113.002,88.095c0.136,0.048,0.264,0.097,0.384,0.152l-0.28,0.632c-0.104-0.048-0.208-0.088-0.312-0.128
	c-0.184-0.064-0.424-0.136-0.624-0.136c-0.248,0-0.447,0.119-0.447,0.352c0,0.296,0.224,0.535,0.663,0.703
	c0.664,0.256,1.071,0.544,1.071,1.231c0,0.607-0.503,1.191-1.398,1.191c-0.353,0-0.712-0.096-0.976-0.191
	c-0.16-0.057-0.313-0.12-0.448-0.192l0.296-0.68c0.12,0.072,0.248,0.136,0.368,0.192c0.216,0.096,0.464,0.191,0.68,0.191
	c0.376,0,0.544-0.16,0.544-0.407c0-0.28-0.2-0.504-0.584-0.656c-0.823-0.312-1.151-0.663-1.151-1.295
	c0-0.607,0.584-1.119,1.352-1.119C112.458,87.936,112.77,88.007,113.002,88.095z"/>
<path fill="#FFFFFF" d="M113.819,88.031h0.72l0.159-0.936l0.76-0.168v1.104h0.983l-0.111,0.655h-0.872v2.351
	c0,0.28,0.176,0.328,0.36,0.328c0.151,0,0.304-0.024,0.423-0.056c0.072-0.017,0.137-0.032,0.2-0.057l0.152,0.608
	c-0.088,0.04-0.185,0.071-0.288,0.096c-0.184,0.056-0.439,0.088-0.735,0.088c-0.6,0-1.031-0.24-1.031-0.903v-2.455h-0.72V88.031z"/>
<path fill="#FFFFFF" d="M118.146,89.806v2.207h-0.919v-2.015c0-0.64-0.104-1.063-0.2-1.327c-0.056-0.152-0.12-0.28-0.192-0.376
	l0.729-0.288l0.151,0.216c0.088,0.152,0.176,0.336,0.232,0.616c0.216-0.607,0.64-0.863,1.151-0.863c0.119,0,0.247,0.023,0.344,0.048
	l0.151,0.04l-0.256,0.896c-0.032-0.009-0.063-0.024-0.104-0.04c-0.064-0.024-0.16-0.048-0.288-0.048
	C118.563,88.871,118.203,89.23,118.146,89.806z"/>
<path fill="#FFFFFF" d="M123.273,90.086c0,0.64,0.096,1.063,0.191,1.327c0.057,0.16,0.128,0.288,0.2,0.376l-0.728,0.288
	c-0.064-0.072-0.128-0.152-0.184-0.248c-0.097-0.16-0.2-0.408-0.225-0.728c-0.184,0.64-0.56,0.959-1.239,0.959
	c-0.999,0-1.471-0.783-1.471-1.982c0-1.216,0.783-2.111,1.911-2.111c0.319,0,0.695,0.064,1.007,0.12
	c0.176,0.032,0.353,0.072,0.536,0.112V90.086z M122.354,89.846v-1.143c-0.104-0.024-0.359-0.088-0.52-0.088
	c-0.791,0-1.023,0.583-1.023,1.383c0,0.735,0.056,1.415,0.632,1.415C121.962,91.413,122.354,90.63,122.354,89.846z"/>
<path fill="#FFFFFF" d="M123.907,88.031h0.72l0.16-0.936l0.76-0.168v1.104h0.983l-0.112,0.655h-0.871v2.351
	c0,0.28,0.176,0.328,0.359,0.328c0.152,0,0.304-0.024,0.424-0.056c0.072-0.017,0.136-0.032,0.2-0.057l0.151,0.608
	c-0.088,0.04-0.184,0.071-0.288,0.096c-0.184,0.056-0.439,0.088-0.735,0.088c-0.6,0-1.031-0.24-1.031-0.903v-2.455h-0.72V88.031z"/>
<path fill="#FFFFFF" d="M130.577,89.974c0,1.191-0.6,2.119-1.823,2.119c-1.223,0-1.751-0.775-1.751-2.031
	c0-1.207,0.6-2.126,1.823-2.126S130.577,88.703,130.577,89.974z M127.995,89.982c0,0.791,0.159,1.431,0.839,1.431
	c0.608,0,0.752-0.592,0.752-1.359c0-0.799-0.16-1.438-0.84-1.438C128.139,88.615,127.995,89.215,127.995,89.982z"/>
<path fill="#FFFFFF" d="M132.371,89.806v2.207h-0.92v-2.015c0-0.64-0.104-1.063-0.2-1.327c-0.056-0.152-0.119-0.28-0.191-0.376
	l0.728-0.288l0.152,0.216c0.088,0.152,0.176,0.336,0.231,0.616c0.216-0.607,0.64-0.863,1.151-0.863c0.12,0,0.248,0.023,0.344,0.048
	l0.152,0.04l-0.256,0.896c-0.032-0.009-0.064-0.024-0.104-0.04c-0.063-0.024-0.16-0.048-0.288-0.048
	C132.786,88.871,132.427,89.23,132.371,89.806z"/>
<path fill="#FFFFFF" d="M134.291,90.957c0.088-0.031,0.216-0.071,0.407-0.071c0.376,0,0.544,0.248,0.544,0.6
	c0,0.863-0.527,1.415-1.104,1.711l-0.344-0.472c0.855-0.647,0.424-1.295,0.376-1.695C134.195,91.006,134.235,90.981,134.291,90.957z
	"/>
<path fill="#FFFFFF" d="M138.323,86.6h0.959v5.413h-0.959V86.6z"/>
<path fill="#FFFFFF" d="M141.307,92.013h-0.919v-2.015c0-0.64-0.104-1.063-0.2-1.327c-0.056-0.152-0.12-0.28-0.192-0.376
	l0.729-0.288c0.056,0.057,0.104,0.128,0.159,0.216c0.088,0.152,0.176,0.36,0.232,0.64c0.279-0.631,0.848-0.896,1.423-0.896
	c0.36,0,0.632,0.097,0.832,0.296c0.224,0.225,0.335,0.584,0.335,1.08v2.67h-0.919v-2.582c0-0.448-0.144-0.736-0.52-0.736
	c-0.472,0-1,0.528-0.96,1.367V92.013z"/>
<path fill="#FFFFFF" d="M144.684,86.6h0.16c0.176,0,0.352,0,0.52-0.008c0.288,0,0.64-0.008,0.896-0.008
	c1.814,0,2.662,0.919,2.662,2.687c0,1.783-0.855,2.759-2.767,2.759c-0.327,0-0.64,0-0.887-0.009c-0.137,0-0.272,0-0.4-0.008h-0.184
	V86.6z M145.643,87.312v3.99c0.12,0.008,0.28,0.008,0.624,0.008c1.119,0,1.615-0.664,1.615-1.951c0-1.239-0.472-2.055-1.735-2.055
	C145.898,87.304,145.747,87.312,145.643,87.312z"/>
<path fill="#FFFFFF" d="M151.475,87.936c0.952,0,1.336,0.495,1.336,1.135c0,0.775-0.88,1.415-2.287,1.439
	c0.063,0.487,0.256,0.896,0.88,0.896c0.231,0,0.52-0.064,0.743-0.136c0.136-0.04,0.264-0.088,0.392-0.145l0.24,0.576
	c-0.136,0.072-0.288,0.128-0.448,0.184c-0.279,0.096-0.647,0.185-1.055,0.185c-1.239,0-1.728-0.776-1.728-1.951
	C149.548,88.687,150.388,87.936,151.475,87.936z M150.499,89.926c1-0.023,1.392-0.487,1.392-0.855c0-0.312-0.2-0.504-0.487-0.504
	C150.699,88.566,150.523,89.278,150.499,89.926z"/>
<path fill="#FFFFFF" d="M155.611,88.095c0.136,0.048,0.264,0.097,0.384,0.152l-0.28,0.632c-0.104-0.048-0.207-0.088-0.312-0.128
	c-0.184-0.064-0.424-0.136-0.623-0.136c-0.248,0-0.448,0.119-0.448,0.352c0,0.296,0.224,0.535,0.664,0.703
	c0.663,0.256,1.071,0.544,1.071,1.231c0,0.607-0.504,1.191-1.399,1.191c-0.352,0-0.712-0.096-0.976-0.191
	c-0.16-0.057-0.312-0.12-0.447-0.192l0.295-0.68c0.12,0.072,0.248,0.136,0.368,0.192c0.216,0.096,0.464,0.191,0.68,0.191
	c0.376,0,0.544-0.16,0.544-0.407c0-0.28-0.2-0.504-0.584-0.656c-0.823-0.312-1.151-0.663-1.151-1.295
	c0-0.607,0.584-1.119,1.352-1.119C155.067,87.936,155.38,88.007,155.611,88.095z"/>
<path fill="#FFFFFF" d="M157.844,86.8c0,0.319-0.184,0.567-0.56,0.567c-0.344,0-0.536-0.248-0.536-0.543
	c0-0.328,0.185-0.576,0.56-0.576C157.652,86.248,157.844,86.479,157.844,86.8z M156.836,91.142v-3.11h0.92v3.022
	c0,0.248,0.072,0.312,0.224,0.312c0.04,0,0.096,0,0.136-0.008c0.024,0,0.049,0,0.072-0.008l0.096,0.583
	c-0.04,0.024-0.088,0.04-0.144,0.057c-0.096,0.031-0.24,0.056-0.432,0.056C157.141,92.045,156.836,91.677,156.836,91.142z"/>
<path fill="#FFFFFF" d="M161.354,91.229c-0.184,0.544-0.56,0.831-1.199,0.831c-0.999,0-1.471-0.783-1.471-1.982
	c0-1.216,0.783-2.111,1.91-2.111c0.528,0,1.208,0.152,1.439,0.216l0.128,0.017l-0.04,2.19c-0.023,0.632,0.248,1.04,0.248,1.68
	c0,1.183-0.72,1.759-1.807,1.671c-0.344-0.024-0.648-0.097-0.88-0.185c-0.136-0.04-0.264-0.088-0.384-0.144l0.224-0.703
	c0.44,0.167,0.696,0.271,1.04,0.304c0.919,0.088,1.127-0.752,0.831-1.672C161.371,91.31,161.379,91.27,161.354,91.229z
	 M161.219,89.91v-1.207c-0.104-0.024-0.359-0.088-0.52-0.088c-0.792,0-1.023,0.583-1.023,1.383c0,0.735,0.056,1.415,0.632,1.415
	C160.811,91.413,161.194,90.67,161.219,89.91z"/>
<path fill="#FFFFFF" d="M164.163,92.013h-0.919v-2.015c0-0.64-0.104-1.063-0.2-1.327c-0.056-0.152-0.12-0.28-0.191-0.376
	l0.728-0.288c0.056,0.057,0.104,0.128,0.159,0.216c0.089,0.152,0.177,0.36,0.232,0.64c0.279-0.631,0.848-0.896,1.423-0.896
	c0.36,0,0.632,0.097,0.832,0.296c0.224,0.225,0.336,0.584,0.336,1.08v2.67h-0.92v-2.582c0-0.448-0.144-0.736-0.52-0.736
	c-0.472,0-0.999,0.528-0.96,1.367V92.013z"/>
<path fill="#FFFFFF" d="M167.859,90.957c0.088-0.031,0.216-0.071,0.408-0.071c0.376,0,0.543,0.248,0.543,0.6
	c0,0.863-0.527,1.415-1.103,1.711l-0.344-0.472c0.855-0.647,0.423-1.295,0.375-1.695C167.764,91.006,167.804,90.981,167.859,90.957z
	"/>
<path fill="#FFFFFF" d="M29.898,96.2h0.16c0.2,0,0.384,0,0.567-0.008c0.313,0,0.664-0.009,0.88-0.009
	c1.304,0,1.911,0.616,1.911,1.632c0,0.991-0.688,1.679-2.007,1.679h-0.552v2.119h-0.96V96.2z M30.858,96.88v1.902h0.607
	c0.664,0,0.928-0.399,0.928-0.936c0-0.487-0.232-0.975-1.008-0.975C31.162,96.872,30.986,96.872,30.858,96.88z"/>
<path fill="#FFFFFF" d="M35.059,98.135c0.312-0.407,0.759-0.567,1.23-0.567c0.36,0,0.632,0.096,0.832,0.296
	c0.224,0.224,0.336,0.583,0.336,1.079v2.671h-0.92v-2.606c0-0.448-0.144-0.72-0.52-0.72c-0.447,0-0.92,0.464-0.959,1.191v2.135
	h-0.92v-5.637l0.92-0.16V98.135z"/>
<path fill="#FFFFFF" d="M41.793,99.574c0,1.191-0.6,2.119-1.823,2.119s-1.751-0.776-1.751-2.031c0-1.207,0.6-2.127,1.823-2.127
	C41.265,97.535,41.793,98.303,41.793,99.574z M39.21,99.582c0,0.792,0.16,1.432,0.84,1.432c0.607,0,0.751-0.592,0.751-1.359
	c0-0.8-0.159-1.439-0.839-1.439C39.354,98.215,39.21,98.814,39.21,99.582z"/>
<path fill="#FFFFFF" d="M42.155,97.631h0.72l0.159-0.936l0.76-0.168v1.104h0.983l-0.111,0.656h-0.872v2.351
	c0,0.279,0.176,0.328,0.36,0.328c0.151,0,0.304-0.024,0.423-0.057c0.072-0.016,0.137-0.032,0.2-0.056l0.152,0.607
	c-0.088,0.04-0.185,0.072-0.288,0.096c-0.184,0.057-0.439,0.088-0.735,0.088c-0.6,0-1.031-0.239-1.031-0.903v-2.454h-0.72V97.631z"
	/>
<path fill="#FFFFFF" d="M48.825,99.574c0,1.191-0.6,2.119-1.823,2.119s-1.751-0.776-1.751-2.031c0-1.207,0.6-2.127,1.823-2.127
	C48.297,97.535,48.825,98.303,48.825,99.574z M46.242,99.582c0,0.792,0.16,1.432,0.84,1.432c0.607,0,0.751-0.592,0.751-1.359
	c0-0.8-0.159-1.439-0.839-1.439C46.386,98.215,46.242,98.814,46.242,99.582z"/>
<path fill="#FFFFFF" d="M51.666,97.695c0.136,0.048,0.264,0.096,0.384,0.151l-0.28,0.632c-0.104-0.048-0.208-0.088-0.312-0.128
	c-0.184-0.063-0.424-0.136-0.624-0.136c-0.248,0-0.447,0.12-0.447,0.352c0,0.296,0.224,0.536,0.663,0.704
	c0.664,0.256,1.071,0.544,1.071,1.231c0,0.607-0.503,1.191-1.398,1.191c-0.353,0-0.712-0.097-0.976-0.192
	c-0.16-0.056-0.313-0.12-0.448-0.191l0.296-0.68c0.12,0.071,0.248,0.136,0.368,0.191c0.216,0.096,0.464,0.192,0.68,0.192
	c0.376,0,0.544-0.16,0.544-0.408c0-0.279-0.2-0.504-0.584-0.655c-0.823-0.313-1.151-0.664-1.151-1.296
	c0-0.607,0.584-1.119,1.352-1.119C51.122,97.535,51.434,97.607,51.666,97.695z"/>
<path fill="#FFFFFF" d="M53.843,98.135c0.312-0.407,0.759-0.567,1.23-0.567c0.36,0,0.632,0.096,0.832,0.296
	c0.224,0.224,0.336,0.583,0.336,1.079v2.671h-0.92v-2.606c0-0.448-0.144-0.72-0.52-0.72c-0.447,0-0.92,0.464-0.959,1.191v2.135
	h-0.92v-5.637l0.92-0.16V98.135z"/>
<path fill="#FFFFFF" d="M60.577,99.574c0,1.191-0.6,2.119-1.823,2.119s-1.751-0.776-1.751-2.031c0-1.207,0.6-2.127,1.823-2.127
	C60.049,97.535,60.577,98.303,60.577,99.574z M57.994,99.582c0,0.792,0.16,1.432,0.84,1.432c0.607,0,0.751-0.592,0.751-1.359
	c0-0.8-0.159-1.439-0.839-1.439C58.138,98.215,57.994,98.814,57.994,99.582z"/>
<path fill="#FFFFFF" d="M61.787,97.607c0.063,0.063,0.119,0.144,0.176,0.239c0.088,0.16,0.184,0.384,0.224,0.696
	c0.184-0.64,0.552-0.976,1.247-0.976c1,0,1.472,0.783,1.472,1.982c0,1.216-0.784,2.111-1.911,2.111c-0.2,0-0.408-0.024-0.624-0.048
	v1.606l-0.919,0.16v-3.782c0-0.64-0.104-1.063-0.2-1.327c-0.056-0.151-0.12-0.279-0.192-0.375L61.787,97.607z M62.37,99.726v1.208
	c0.096,0.023,0.352,0.08,0.52,0.08c0.792,0,1.023-0.584,1.023-1.384c0-0.735-0.056-1.407-0.631-1.407
	C62.771,98.223,62.395,98.958,62.37,99.726z"/>
<path fill="#FFFFFF" d="M69.16,98.041c0.834,0,1.17,0.435,1.17,0.994c0,0.68-0.771,1.24-2.003,1.261
	c0.056,0.428,0.224,0.785,0.771,0.785c0.203,0,0.455-0.057,0.651-0.119c0.119-0.035,0.23-0.077,0.343-0.126l0.21,0.504
	c-0.119,0.063-0.252,0.112-0.392,0.161c-0.245,0.084-0.567,0.161-0.925,0.161c-1.086,0-1.513-0.68-1.513-1.709
	C67.473,98.699,68.208,98.041,69.16,98.041z M68.306,99.785c0.876-0.021,1.219-0.428,1.219-0.75c0-0.272-0.175-0.44-0.427-0.44
	C68.481,98.595,68.327,99.218,68.306,99.785z"/>
<path fill="#FFFFFF" d="M70.608,98.125h0.63l0.141-0.819l0.665-0.147v0.967h0.861l-0.098,0.574h-0.764v2.06
	c0,0.245,0.154,0.287,0.315,0.287c0.133,0,0.266-0.021,0.371-0.049c0.063-0.015,0.119-0.028,0.175-0.05l0.134,0.532
	c-0.077,0.035-0.161,0.063-0.253,0.085c-0.161,0.049-0.385,0.076-0.644,0.076c-0.525,0-0.904-0.21-0.904-0.791v-2.15h-0.63V98.125z"
	/>
<path fill="#FFFFFF" d="M78.592,103.388l-0.92-0.168v-2.095c-0.216,0.36-0.575,0.536-1.063,0.536c-0.999,0-1.471-0.784-1.471-1.983
	c0-1.215,0.783-2.11,1.911-2.11c0.319,0,0.695,0.063,1.007,0.12c0.176,0.031,0.353,0.071,0.536,0.111V103.388z M77.672,99.446
	v-1.144c-0.104-0.023-0.359-0.088-0.52-0.088c-0.791,0-1.023,0.584-1.023,1.383c0,0.736,0.056,1.407,0.632,1.407
	C77.28,101.005,77.672,100.237,77.672,99.446z"/>
<path fill="#FFFFFF" d="M81.992,97.631h0.919v2.056c0,0.64,0.097,1.063,0.192,1.327c0.056,0.159,0.128,0.287,0.2,0.375l-0.729,0.288
	c-0.056-0.056-0.111-0.136-0.167-0.224c-0.089-0.152-0.192-0.368-0.232-0.655c-0.288,0.615-0.84,0.863-1.415,0.863
	c-0.36,0-0.632-0.096-0.832-0.296c-0.224-0.224-0.335-0.584-0.335-1.079v-2.655h0.919v2.631c0,0.448,0.144,0.72,0.52,0.72
	c0.472,0,1-0.56,0.96-1.399V97.631z"/>
<path fill="#FFFFFF" d="M85.713,97.535c0.951,0,1.335,0.496,1.335,1.136c0,0.775-0.88,1.415-2.287,1.438
	c0.064,0.488,0.256,0.896,0.88,0.896c0.231,0,0.52-0.063,0.743-0.136c0.136-0.04,0.264-0.088,0.392-0.144l0.24,0.575
	c-0.136,0.072-0.288,0.128-0.447,0.185c-0.28,0.096-0.648,0.184-1.056,0.184c-1.239,0-1.728-0.775-1.728-1.951
	C83.785,98.287,84.625,97.535,85.713,97.535z M84.737,99.526c0.999-0.024,1.391-0.488,1.391-0.855c0-0.313-0.199-0.504-0.487-0.504
	C84.937,98.167,84.761,98.879,84.737,99.526z"/>
<path fill="#FFFFFF" d="M87.77,100.741v-4.765l0.92-0.168v4.845c0,0.248,0.096,0.328,0.279,0.328c0.104,0,0.208-0.008,0.296-0.032
	l0.128-0.032l0.112,0.584l-0.232,0.072c-0.151,0.04-0.359,0.071-0.615,0.071C88.05,101.645,87.77,101.277,87.77,100.741z"/>
<path fill="#FFFFFF" d="M93.359,103.388l-0.919-0.168v-2.095c-0.216,0.36-0.576,0.536-1.063,0.536c-1,0-1.472-0.784-1.472-1.983
	c0-1.215,0.784-2.11,1.911-2.11c0.32,0,0.695,0.063,1.008,0.12c0.176,0.031,0.352,0.071,0.535,0.111V103.388z M92.44,99.446v-1.144
	c-0.104-0.023-0.36-0.088-0.52-0.088c-0.792,0-1.023,0.584-1.023,1.383c0,0.736,0.056,1.407,0.631,1.407
	C92.049,101.005,92.44,100.237,92.44,99.446z"/>
<path fill="#FFFFFF" d="M96.76,97.631h0.92v2.056c0,0.64,0.096,1.063,0.191,1.327c0.057,0.159,0.128,0.287,0.2,0.375l-0.728,0.288
	c-0.056-0.056-0.112-0.136-0.168-0.224c-0.088-0.152-0.191-0.368-0.231-0.655c-0.288,0.615-0.84,0.863-1.416,0.863
	c-0.359,0-0.631-0.096-0.831-0.296c-0.224-0.224-0.336-0.584-0.336-1.079v-2.655h0.92v2.631c0,0.448,0.144,0.72,0.52,0.72
	c0.472,0,0.999-0.56,0.959-1.399V97.631z"/>
<path fill="#FFFFFF" d="M100.48,97.535c0.951,0,1.335,0.496,1.335,1.136c0,0.775-0.879,1.415-2.286,1.438
	c0.063,0.488,0.256,0.896,0.879,0.896c0.232,0,0.521-0.063,0.744-0.136c0.136-0.04,0.264-0.088,0.392-0.144l0.24,0.575
	c-0.137,0.072-0.288,0.128-0.448,0.185c-0.279,0.096-0.647,0.184-1.056,0.184c-1.239,0-1.727-0.775-1.727-1.951
	C98.554,98.287,99.394,97.535,100.48,97.535z M99.505,99.526c1-0.024,1.392-0.488,1.392-0.855c0-0.313-0.2-0.504-0.488-0.504
	C99.705,98.167,99.529,98.879,99.505,99.526z"/>
<path fill="#FFFFFF" d="M104.616,97.695c0.136,0.048,0.264,0.096,0.384,0.151l-0.28,0.632c-0.104-0.048-0.208-0.088-0.312-0.128
	c-0.184-0.063-0.424-0.136-0.624-0.136c-0.248,0-0.447,0.12-0.447,0.352c0,0.296,0.224,0.536,0.663,0.704
	c0.664,0.256,1.071,0.544,1.071,1.231c0,0.607-0.503,1.191-1.398,1.191c-0.353,0-0.712-0.097-0.976-0.192
	c-0.16-0.056-0.313-0.12-0.448-0.191l0.296-0.68c0.12,0.071,0.248,0.136,0.368,0.191c0.216,0.096,0.464,0.192,0.68,0.192
	c0.376,0,0.544-0.16,0.544-0.408c0-0.279-0.2-0.504-0.584-0.655c-0.823-0.313-1.151-0.664-1.151-1.296
	c0-0.607,0.584-1.119,1.352-1.119C104.072,97.535,104.384,97.607,104.616,97.695z"/>
<path fill="#FFFFFF" d="M108.904,101.613h-0.919v-2.016c0-0.64-0.104-1.063-0.2-1.327c-0.056-0.151-0.12-0.279-0.192-0.375
	l0.729-0.288c0.056,0.056,0.104,0.128,0.159,0.216c0.088,0.151,0.176,0.359,0.232,0.64c0.279-0.632,0.848-0.896,1.423-0.896
	c0.36,0,0.632,0.096,0.832,0.296c0.224,0.224,0.335,0.583,0.335,1.079v2.671h-0.919V99.03c0-0.447-0.144-0.735-0.52-0.735
	c-0.472,0-1,0.527-0.96,1.367V101.613z"/>
<path fill="#FFFFFF" d="M115.64,99.574c0,1.191-0.6,2.119-1.823,2.119s-1.751-0.776-1.751-2.031c0-1.207,0.6-2.127,1.823-2.127
	C115.111,97.535,115.64,98.303,115.64,99.574z M113.057,99.582c0,0.792,0.16,1.432,0.84,1.432c0.607,0,0.751-0.592,0.751-1.359
	c0-0.8-0.159-1.439-0.839-1.439C113.2,98.215,113.057,98.814,113.057,99.582z"/>
<path fill="#FFFFFF" d="M116.002,97.631h0.72l0.159-0.936l0.76-0.168v1.104h0.983l-0.111,0.656h-0.872v2.351
	c0,0.279,0.176,0.328,0.36,0.328c0.151,0,0.304-0.024,0.423-0.057c0.072-0.016,0.137-0.032,0.2-0.056l0.152,0.607
	c-0.088,0.04-0.185,0.072-0.288,0.096c-0.184,0.057-0.439,0.088-0.735,0.088c-0.6,0-1.031-0.239-1.031-0.903v-2.454h-0.72V97.631z"
	/>
<path fill="#FFFFFF" d="M120.313,96.399c0,0.32-0.184,0.568-0.56,0.568c-0.344,0-0.535-0.248-0.535-0.544
	c0-0.328,0.184-0.575,0.56-0.575C120.121,95.849,120.313,96.08,120.313,96.399z M119.306,100.741v-3.11h0.919v3.022
	c0,0.248,0.072,0.313,0.225,0.313c0.039,0,0.096,0,0.136-0.009c0.023,0,0.048,0,0.071-0.008l0.097,0.584
	c-0.04,0.023-0.088,0.04-0.145,0.056c-0.096,0.032-0.239,0.056-0.432,0.056C119.609,101.645,119.306,101.277,119.306,100.741z"/>
<path fill="#FFFFFF" d="M124.728,99.574c0,1.191-0.6,2.119-1.823,2.119c-1.223,0-1.751-0.776-1.751-2.031
	c0-1.207,0.6-2.127,1.823-2.127S124.728,98.303,124.728,99.574z M122.146,99.582c0,0.792,0.159,1.432,0.839,1.432
	c0.608,0,0.752-0.592,0.752-1.359c0-0.8-0.16-1.439-0.84-1.439C122.289,98.215,122.146,98.814,122.146,99.582z"/>
<path fill="#FFFFFF" d="M126.521,101.613h-0.919v-2.016c0-0.64-0.104-1.063-0.2-1.327c-0.056-0.151-0.12-0.279-0.192-0.375
	l0.729-0.288c0.056,0.056,0.104,0.128,0.159,0.216c0.088,0.151,0.176,0.359,0.232,0.64c0.279-0.632,0.848-0.896,1.423-0.896
	c0.36,0,0.632,0.096,0.832,0.296c0.224,0.224,0.335,0.583,0.335,1.079v2.671H128V99.03c0-0.447-0.144-0.735-0.52-0.735
	c-0.472,0-1,0.527-0.96,1.367V101.613z"/>
<path fill="#FFFFFF" d="M131.96,97.695c0.136,0.048,0.264,0.096,0.384,0.151l-0.279,0.632c-0.104-0.048-0.208-0.088-0.313-0.128
	c-0.184-0.063-0.424-0.136-0.623-0.136c-0.248,0-0.448,0.12-0.448,0.352c0,0.296,0.225,0.536,0.664,0.704
	c0.663,0.256,1.071,0.544,1.071,1.231c0,0.607-0.504,1.191-1.399,1.191c-0.352,0-0.712-0.097-0.976-0.192
	c-0.159-0.056-0.312-0.12-0.447-0.191l0.296-0.68c0.12,0.071,0.248,0.136,0.367,0.191c0.216,0.096,0.464,0.192,0.68,0.192
	c0.376,0,0.544-0.16,0.544-0.408c0-0.279-0.2-0.504-0.584-0.655c-0.823-0.313-1.151-0.664-1.151-1.296
	c0-0.607,0.584-1.119,1.352-1.119C131.417,97.535,131.729,97.607,131.96,97.695z"/>
<path fill="#FFFFFF" d="M136.944,97.535c0.951,0,1.335,0.496,1.335,1.136c0,0.775-0.879,1.415-2.286,1.438
	c0.063,0.488,0.256,0.896,0.879,0.896c0.232,0,0.521-0.063,0.744-0.136c0.136-0.04,0.264-0.088,0.392-0.144l0.24,0.575
	c-0.137,0.072-0.288,0.128-0.448,0.185c-0.279,0.096-0.647,0.184-1.056,0.184c-1.239,0-1.727-0.775-1.727-1.951
	C135.018,98.287,135.857,97.535,136.944,97.535z M135.969,99.526c1-0.024,1.392-0.488,1.392-0.855c0-0.313-0.2-0.504-0.488-0.504
	C136.169,98.167,135.993,98.879,135.969,99.526z"/>
<path fill="#FFFFFF" d="M140.032,101.613h-0.919v-2.016c0-0.64-0.104-1.063-0.2-1.327c-0.056-0.151-0.12-0.279-0.192-0.375
	l0.729-0.288c0.056,0.056,0.104,0.128,0.159,0.216c0.088,0.151,0.176,0.359,0.232,0.64c0.279-0.632,0.848-0.896,1.423-0.896
	c0.36,0,0.632,0.096,0.832,0.296c0.224,0.224,0.335,0.583,0.335,1.079v2.671h-0.919V99.03c0-0.447-0.144-0.735-0.52-0.735
	c-0.472,0-1,0.527-0.96,1.367V101.613z"/>
<path fill="#FFFFFF" d="M145.513,96.2h3.223v0.728h-2.263v1.551h1.863l-0.12,0.728h-1.743v2.407h-0.96V96.2z"/>
<path fill="#FFFFFF" d="M149.337,100.741v-4.765l0.92-0.168v4.845c0,0.248,0.096,0.328,0.279,0.328c0.104,0,0.208-0.008,0.296-0.032
	l0.128-0.032l0.112,0.584l-0.231,0.072c-0.152,0.04-0.36,0.071-0.616,0.071C149.617,101.645,149.337,101.277,149.337,100.741z"/>
<path fill="#FFFFFF" d="M154.928,99.687c0,0.64,0.096,1.063,0.191,1.327c0.056,0.159,0.128,0.287,0.2,0.375l-0.728,0.288
	c-0.064-0.071-0.128-0.151-0.185-0.248c-0.096-0.159-0.199-0.407-0.224-0.728c-0.184,0.64-0.56,0.96-1.239,0.96
	c-0.999,0-1.471-0.784-1.471-1.983c0-1.215,0.783-2.11,1.91-2.11c0.32,0,0.696,0.063,1.008,0.12
	c0.176,0.031,0.352,0.071,0.536,0.111V99.687z M154.008,99.446v-1.144c-0.104-0.023-0.359-0.088-0.52-0.088
	c-0.792,0-1.023,0.584-1.023,1.383c0,0.736,0.056,1.416,0.632,1.416C153.616,101.014,154.008,100.229,154.008,99.446z"/>
<path fill="#FFFFFF" d="M158.04,97.695c0.136,0.048,0.264,0.096,0.384,0.151l-0.28,0.632c-0.104-0.048-0.207-0.088-0.312-0.128
	c-0.184-0.063-0.424-0.136-0.624-0.136c-0.247,0-0.447,0.12-0.447,0.352c0,0.296,0.224,0.536,0.664,0.704
	c0.663,0.256,1.071,0.544,1.071,1.231c0,0.607-0.504,1.191-1.399,1.191c-0.352,0-0.712-0.097-0.976-0.192
	c-0.16-0.056-0.312-0.12-0.448-0.191l0.296-0.68c0.12,0.071,0.248,0.136,0.368,0.191c0.216,0.096,0.464,0.192,0.68,0.192
	c0.376,0,0.544-0.16,0.544-0.408c0-0.279-0.2-0.504-0.584-0.655c-0.823-0.313-1.151-0.664-1.151-1.296
	c0-0.607,0.584-1.119,1.352-1.119C157.496,97.535,157.809,97.607,158.04,97.695z"/>
<path fill="#FFFFFF" d="M160.217,98.135c0.312-0.407,0.76-0.567,1.231-0.567c0.359,0,0.631,0.096,0.831,0.296
	c0.224,0.224,0.336,0.583,0.336,1.079v2.671h-0.92v-2.606c0-0.448-0.144-0.72-0.52-0.72c-0.447,0-0.919,0.464-0.959,1.191v2.135
	h-0.92v-5.637l0.92-0.16V98.135z"/>
<path fill="#FFFFFF" d="M31.546,107.136c0.951,0,1.335,0.495,1.335,1.135c0,0.775-0.879,1.415-2.286,1.439
	c0.063,0.487,0.256,0.896,0.879,0.896c0.232,0,0.521-0.064,0.744-0.136c0.136-0.04,0.264-0.088,0.392-0.145l0.24,0.576
	c-0.137,0.072-0.288,0.128-0.448,0.184c-0.279,0.096-0.647,0.185-1.056,0.185c-1.239,0-1.727-0.776-1.727-1.951
	C29.619,107.887,30.459,107.136,31.546,107.136z M30.57,109.126c1-0.023,1.392-0.487,1.392-0.855c0-0.312-0.2-0.504-0.488-0.504
	C30.771,107.767,30.595,108.479,30.57,109.126z"/>
<path fill="#FFFFFF" d="M33.203,107.231h0.72l0.159-0.936l0.76-0.168v1.104h0.983l-0.111,0.655h-0.872v2.351
	c0,0.28,0.176,0.328,0.36,0.328c0.151,0,0.304-0.024,0.423-0.056c0.072-0.017,0.137-0.032,0.2-0.057l0.152,0.608
	c-0.088,0.04-0.185,0.071-0.288,0.096c-0.184,0.056-0.439,0.088-0.735,0.088c-0.6,0-1.031-0.24-1.031-0.903v-2.455h-0.72V107.231z"
	/>
<path fill="#FFFFFF" d="M38.618,105.8h0.16c0.176,0,0.352,0,0.52-0.008c0.288,0,0.64-0.008,0.896-0.008
	c1.815,0,2.663,0.919,2.663,2.687c0,1.783-0.855,2.759-2.767,2.759c-0.328,0-0.64,0-0.888-0.009c-0.136,0-0.271,0-0.399-0.008
	h-0.185V105.8z M39.578,106.512v3.99c0.12,0.008,0.279,0.008,0.624,0.008c1.119,0,1.614-0.664,1.614-1.951
	c0-1.239-0.472-2.055-1.734-2.055C39.834,106.504,39.682,106.512,39.578,106.512z"/>
<path fill="#FFFFFF" d="M44.714,109.006v2.207h-0.919v-2.015c0-0.64-0.104-1.063-0.2-1.327c-0.056-0.152-0.12-0.28-0.192-0.376
	l0.729-0.288l0.151,0.216c0.088,0.152,0.176,0.336,0.232,0.616c0.216-0.607,0.64-0.863,1.151-0.863c0.119,0,0.247,0.023,0.344,0.048
	l0.151,0.04l-0.256,0.896c-0.032-0.009-0.063-0.024-0.104-0.04c-0.064-0.024-0.16-0.048-0.288-0.048
	C45.13,108.071,44.771,108.431,44.714,109.006z"/>
<path fill="#FFFFFF" d="M48.314,107.136c0.951,0,1.335,0.495,1.335,1.135c0,0.775-0.88,1.415-2.287,1.439
	c0.064,0.487,0.256,0.896,0.88,0.896c0.231,0,0.52-0.064,0.743-0.136c0.136-0.04,0.264-0.088,0.392-0.145l0.24,0.576
	c-0.136,0.072-0.288,0.128-0.447,0.184c-0.28,0.096-0.648,0.185-1.056,0.185c-1.239,0-1.728-0.776-1.728-1.951
	C46.387,107.887,47.227,107.136,48.314,107.136z M47.339,109.126c0.999-0.023,1.391-0.487,1.391-0.855
	c0-0.312-0.199-0.504-0.487-0.504C47.538,107.767,47.362,108.479,47.339,109.126z"/>
<path fill="#FFFFFF" d="M53.625,109.286c0,0.64,0.097,1.063,0.192,1.327c0.056,0.16,0.128,0.288,0.2,0.376l-0.729,0.288
	c-0.063-0.072-0.128-0.152-0.184-0.248c-0.096-0.16-0.2-0.408-0.224-0.728c-0.184,0.64-0.56,0.959-1.239,0.959
	c-1,0-1.472-0.783-1.472-1.982c0-1.216,0.784-2.111,1.911-2.111c0.32,0,0.695,0.064,1.008,0.12c0.176,0.032,0.352,0.072,0.535,0.112
	V109.286z M52.706,109.046v-1.143c-0.104-0.024-0.36-0.088-0.52-0.088c-0.792,0-1.023,0.583-1.023,1.383
	c0,0.735,0.056,1.415,0.631,1.415C52.314,110.613,52.706,109.83,52.706,109.046z"/>
<path fill="#FFFFFF" d="M55.69,111.213h-0.919v-2.015c0-0.64-0.104-1.063-0.2-1.327c-0.056-0.152-0.12-0.28-0.192-0.376l0.729-0.288
	c0.056,0.057,0.104,0.128,0.159,0.216c0.088,0.152,0.176,0.36,0.232,0.64c0.264-0.631,0.799-0.896,1.335-0.896
	c0.544,0,0.815,0.296,0.968,0.736c0.287-0.521,0.768-0.736,1.271-0.736c0.344,0,0.6,0.097,0.783,0.296
	c0.208,0.216,0.312,0.576,0.312,1.08v2.67h-0.919v-2.606c0-0.447-0.112-0.72-0.456-0.72c-0.384,0-0.84,0.44-0.863,1.176v2.15h-0.92
	v-2.606c0-0.447-0.111-0.72-0.456-0.72c-0.415,0-0.903,0.536-0.863,1.375V111.213z"/>
<path fill="#FFFFFF" d="M66.376,107.231c0.008,0.08,0.024,0.168,0.04,0.256c0.024,0.151,0.04,0.352,0.04,0.567
	c0,2.358-0.488,3.215-1.959,3.215c-0.359,0-0.632-0.097-0.832-0.296c-0.104-0.104-0.176-0.216-0.231-0.344
	c-0.191,0.447-0.487,0.64-1.136,0.64c-0.359,0-0.631-0.097-0.831-0.296c-0.224-0.225-0.336-0.576-0.336-1.063v-2.679h0.92v2.606
	c0,0.447,0.144,0.768,0.52,0.768c0.487,0,0.76-0.439,0.76-1.551v-1.823h0.919c-0.008,0.399-0.008,0.768-0.008,1.111
	c0,0.592-0.008,1.231-0.008,1.495c0,0.447,0.16,0.768,0.535,0.768c0.736,0,0.76-1.239,0.76-2.455c0-0.247-0.023-0.479-0.048-0.647
	c-0.016-0.096-0.032-0.184-0.04-0.271H66.376z"/>
<path fill="#FFFFFF" d="M69.026,107.136c0.951,0,1.335,0.495,1.335,1.135c0,0.775-0.88,1.415-2.287,1.439
	c0.064,0.487,0.256,0.896,0.88,0.896c0.231,0,0.52-0.064,0.743-0.136c0.136-0.04,0.264-0.088,0.392-0.145l0.24,0.576
	c-0.136,0.072-0.288,0.128-0.447,0.184c-0.28,0.096-0.648,0.185-1.056,0.185c-1.239,0-1.728-0.776-1.728-1.951
	C67.099,107.887,67.938,107.136,69.026,107.136z M68.051,109.126c0.999-0.023,1.391-0.487,1.391-0.855
	c0-0.312-0.199-0.504-0.487-0.504C68.25,107.767,68.074,108.479,68.051,109.126z"/>
<path fill="#FFFFFF" d="M74.337,109.286c0,0.64,0.097,1.063,0.192,1.327c0.056,0.16,0.128,0.288,0.2,0.376l-0.729,0.288
	c-0.063-0.072-0.128-0.152-0.184-0.248c-0.096-0.16-0.2-0.408-0.224-0.728c-0.184,0.64-0.56,0.959-1.239,0.959
	c-1,0-1.472-0.783-1.472-1.982c0-1.216,0.784-2.111,1.911-2.111c0.32,0,0.695,0.064,1.008,0.12c0.176,0.032,0.352,0.072,0.535,0.112
	V109.286z M73.418,109.046v-1.143c-0.104-0.024-0.36-0.088-0.52-0.088c-0.792,0-1.023,0.583-1.023,1.383
	c0,0.735,0.056,1.415,0.631,1.415C73.026,110.613,73.418,109.83,73.418,109.046z"/>
<path fill="#FFFFFF" d="M78.642,107.231c0.008,0.08,0.023,0.168,0.04,0.256c0.023,0.151,0.04,0.367,0.04,0.567
	c0,2.358-0.688,3.198-2.184,3.198c-0.359,0-0.631-0.096-0.831-0.296c-0.224-0.224-0.336-0.583-0.336-1.071v-2.654h0.92v2.631
	c0,0.447,0.144,0.743,0.52,0.743c0.76,0,0.983-1.239,0.983-2.455c0-0.224-0.024-0.439-0.048-0.623
	c-0.017-0.104-0.032-0.2-0.04-0.296H78.642z"/>
<path fill="#FFFFFF" d="M81.29,107.136c0.951,0,1.335,0.495,1.335,1.135c0,0.775-0.88,1.415-2.287,1.439
	c0.064,0.487,0.256,0.896,0.88,0.896c0.231,0,0.52-0.064,0.743-0.136c0.136-0.04,0.264-0.088,0.392-0.145l0.24,0.576
	c-0.136,0.072-0.288,0.128-0.447,0.184c-0.28,0.096-0.648,0.185-1.056,0.185c-1.239,0-1.728-0.776-1.728-1.951
	C79.362,107.887,80.202,107.136,81.29,107.136z M80.314,109.126c0.999-0.023,1.391-0.487,1.391-0.855
	c0-0.312-0.199-0.504-0.487-0.504C80.514,107.767,80.338,108.479,80.314,109.126z"/>
<path fill="#FFFFFF" d="M84.378,109.006v2.207h-0.919v-2.015c0-0.64-0.104-1.063-0.2-1.327c-0.056-0.152-0.12-0.28-0.192-0.376
	l0.729-0.288l0.151,0.216c0.088,0.152,0.176,0.336,0.232,0.616c0.216-0.607,0.64-0.863,1.151-0.863c0.119,0,0.247,0.023,0.344,0.048
	l0.151,0.04l-0.256,0.896c-0.032-0.009-0.063-0.024-0.104-0.04c-0.064-0.024-0.16-0.048-0.288-0.048
	C84.794,108.071,84.435,108.431,84.378,109.006z"/>
<path fill="#FFFFFF" d="M30.753,127.805c0.585,0,0.963,0.379,0.963,0.964s-0.378,0.963-0.963,0.963
	c-0.586,0-0.964-0.378-0.964-0.963S30.167,127.805,30.753,127.805z"/>
<path fill="#FFFFFF" d="M38.218,126.2h0.96v5.421h-0.8l-1.814-2.83c-0.2-0.312-0.456-0.735-0.672-1.063
	c0.032,0.344,0.063,0.735,0.063,1.079l0.024,2.807h-0.96v-5.429h0.752l1.871,2.798c0.216,0.313,0.447,0.68,0.647,0.992
	c-0.023-0.345-0.048-0.72-0.048-0.968L38.218,126.2z"/>
<path fill="#FFFFFF" d="M43.538,129.574c0,1.191-0.6,2.119-1.823,2.119c-1.223,0-1.751-0.775-1.751-2.031
	c0-1.207,0.6-2.127,1.823-2.127S43.538,128.303,43.538,129.574z M40.956,129.582c0,0.792,0.159,1.432,0.839,1.432
	c0.608,0,0.752-0.592,0.752-1.359c0-0.8-0.16-1.439-0.84-1.439C41.1,128.215,40.956,128.814,40.956,129.582z"/>
<path fill="#FFFFFF" d="M43.9,127.632h0.72l0.159-0.936l0.76-0.168v1.104h0.983l-0.111,0.655h-0.872v2.351
	c0,0.28,0.176,0.328,0.36,0.328c0.151,0,0.304-0.024,0.423-0.057c0.072-0.016,0.137-0.031,0.2-0.056l0.152,0.607
	c-0.088,0.04-0.185,0.072-0.288,0.097c-0.184,0.056-0.439,0.088-0.735,0.088c-0.6,0-1.031-0.24-1.031-0.903v-2.455H43.9V127.632z"/>
<path fill="#FFFFFF" d="M48.923,127.535c0.951,0,1.335,0.496,1.335,1.136c0,0.775-0.88,1.415-2.287,1.439
	c0.064,0.487,0.256,0.896,0.88,0.896c0.231,0,0.52-0.064,0.743-0.136c0.136-0.04,0.264-0.088,0.392-0.145l0.24,0.576
	c-0.136,0.071-0.288,0.128-0.447,0.184c-0.28,0.096-0.648,0.184-1.056,0.184c-1.239,0-1.728-0.775-1.728-1.95
	C46.995,128.287,47.835,127.535,48.923,127.535z M47.947,129.526c0.999-0.023,1.391-0.487,1.391-0.855
	c0-0.312-0.199-0.504-0.487-0.504C48.146,128.167,47.971,128.879,47.947,129.526z"/>
<path fill="#FFFFFF" d="M51.428,127.607c0.063,0.064,0.119,0.144,0.176,0.24c0.088,0.159,0.184,0.384,0.224,0.695
	c0.184-0.64,0.552-0.976,1.247-0.976c1,0,1.472,0.783,1.472,1.983c0,1.215-0.784,2.11-1.911,2.11c-0.2,0-0.408-0.023-0.624-0.048
	v1.607l-0.919,0.159v-3.781c0-0.64-0.104-1.063-0.2-1.327c-0.056-0.152-0.12-0.28-0.192-0.376L51.428,127.607z M52.011,129.727
	v1.207c0.096,0.024,0.352,0.08,0.52,0.08c0.792,0,1.023-0.584,1.023-1.384c0-0.735-0.056-1.406-0.631-1.406
	C52.411,128.224,52.035,128.959,52.011,129.727z"/>
<path fill="#FFFFFF" d="M58.562,129.687c0,0.64,0.097,1.063,0.192,1.327c0.056,0.16,0.128,0.288,0.2,0.376l-0.729,0.287
	c-0.063-0.071-0.128-0.151-0.184-0.247c-0.096-0.16-0.2-0.408-0.224-0.728c-0.184,0.64-0.56,0.959-1.239,0.959
	c-1,0-1.472-0.783-1.472-1.982c0-1.216,0.784-2.111,1.911-2.111c0.32,0,0.695,0.064,1.008,0.12c0.176,0.032,0.352,0.072,0.535,0.112
	V129.687z M57.643,129.446v-1.144c-0.104-0.023-0.36-0.088-0.52-0.088c-0.792,0-1.023,0.584-1.023,1.384
	c0,0.735,0.056,1.415,0.631,1.415C57.251,131.014,57.643,130.23,57.643,129.446z"/>
<path fill="#FFFFFF" d="M62.514,131.677c-0.063-0.071-0.128-0.151-0.184-0.247c-0.096-0.16-0.2-0.408-0.224-0.728
	c-0.184,0.64-0.56,0.959-1.239,0.959c-1,0-1.472-0.783-1.472-1.982c0-1.216,0.784-2.111,1.911-2.111
	c0.192,0,0.408,0.024,0.624,0.056v-1.807l0.919,0.16v3.71c0,0.64,0.097,1.063,0.192,1.327c0.056,0.151,0.128,0.28,0.2,0.376
	L62.514,131.677z M61.931,129.446v-1.144c-0.104-0.023-0.36-0.088-0.52-0.088c-0.792,0-1.023,0.584-1.023,1.384
	c0,0.735,0.056,1.407,0.631,1.407C61.539,131.006,61.931,130.238,61.931,129.446z"/>
<path fill="#FFFFFF" d="M64.22,130.558c0.088-0.031,0.216-0.071,0.407-0.071c0.376,0,0.544,0.247,0.544,0.6
	c0,0.863-0.527,1.415-1.104,1.711l-0.344-0.472c0.855-0.648,0.424-1.296,0.376-1.695C64.124,130.605,64.164,130.582,64.22,130.558z"
	/>
<path fill="#FFFFFF" d="M71.386,128.351c-0.088-0.231-0.136-0.455-0.191-0.655c-0.056,0.2-0.104,0.408-0.176,0.655l-1.031,3.263
	h-0.712l-1.503-5.413h0.959l0.704,2.687c0.128,0.472,0.208,0.84,0.264,1.151c0.072-0.296,0.176-0.672,0.319-1.136l0.84-2.702h0.72
	l0.84,2.702c0.151,0.48,0.256,0.88,0.327,1.191c0.04-0.312,0.112-0.703,0.248-1.191l0.695-2.702h0.976l-1.503,5.413h-0.712
	L71.386,128.351z"/>
<path fill="#FFFFFF" d="M76.483,126.2h0.768l2.078,5.413h-1.023l-0.495-1.415h-1.943l-0.504,1.415h-0.959L76.483,126.2z
	 M77.563,129.486c-0.328-0.936-0.584-1.767-0.712-2.215c-0.151,0.479-0.399,1.296-0.728,2.215H77.563z"/>
<path fill="#FFFFFF" d="M84.329,129.574c-0.024-0.279-0.032-0.831-0.04-1.351c-0.192,0.527-0.416,1.103-0.504,1.327l-0.888,2.063
	h-0.68l-0.896-2.039c-0.104-0.231-0.344-0.839-0.535-1.375c0,0.56-0.032,1.136-0.032,1.352l-0.08,2.063h-0.903l0.32-5.429h0.751
	l1.367,3.382l0.336,0.831c0.104-0.279,0.216-0.575,0.336-0.831l1.359-3.358v-0.023h0.751l0.32,5.429h-0.903L84.329,129.574z"/>
<path fill="#FFFFFF" d="M86.355,126.2h0.16c0.199,0,0.384,0,0.567-0.008c0.312,0,0.664-0.008,0.88-0.008
	c1.303,0,1.91,0.615,1.91,1.631c0,0.991-0.688,1.679-2.007,1.679h-0.552v2.119h-0.959V126.2z M87.314,126.88v1.903h0.608
	c0.663,0,0.927-0.4,0.927-0.936c0-0.488-0.231-0.976-1.007-0.976C87.619,126.872,87.442,126.872,87.314,126.88z"/>
<path fill="#FFFFFF" d="M30.753,148.204c0.585,0,0.963,0.379,0.963,0.964s-0.378,0.963-0.963,0.963
	c-0.586,0-0.964-0.378-0.964-0.963S30.167,148.204,30.753,148.204z"/>
<path fill="#FFFFFF" d="M39.713,153.196c-0.935,0.64-2.303,0.951-3.741-0.576l0.176-0.535c1.224,0.256,2.286-0.76,2.286-2.727
	c0-1.08-0.247-2.087-1.335-2.087c-0.919,0-1.287,0.928-1.287,1.991c0,0.975,0.191,1.535,0.88,1.687l-0.104,0.688
	c-1.303-0.088-1.783-1.247-1.783-2.303c0-1.615,0.784-2.807,2.407-2.807c1.599,0,2.263,1.056,2.263,2.743
	c0,1.967-1.04,3.189-2.239,3.406c0.584,0.407,1.208,0.287,2.151-0.16L39.713,153.196z"/>
<path fill="#FFFFFF" d="M42.723,148.031h0.919v2.055c0,0.64,0.097,1.063,0.192,1.327c0.056,0.16,0.128,0.288,0.2,0.376l-0.729,0.288
	c-0.056-0.057-0.111-0.137-0.167-0.225c-0.089-0.151-0.192-0.367-0.232-0.655c-0.288,0.615-0.84,0.863-1.415,0.863
	c-0.36,0-0.632-0.096-0.832-0.296c-0.224-0.224-0.335-0.584-0.335-1.079v-2.654h0.919v2.63c0,0.448,0.144,0.72,0.52,0.72
	c0.472,0,1-0.56,0.96-1.399V148.031z"/>
<path fill="#FFFFFF" d="M46.443,147.935c0.951,0,1.335,0.496,1.335,1.136c0,0.775-0.88,1.415-2.287,1.439
	c0.064,0.487,0.256,0.896,0.88,0.896c0.231,0,0.52-0.064,0.743-0.136c0.136-0.04,0.264-0.089,0.392-0.145l0.24,0.576
	c-0.136,0.071-0.288,0.128-0.447,0.184c-0.28,0.096-0.648,0.184-1.056,0.184c-1.239,0-1.728-0.775-1.728-1.95
	C44.516,148.687,45.355,147.935,46.443,147.935z M45.468,149.926c0.999-0.024,1.391-0.487,1.391-0.855
	c0-0.312-0.199-0.504-0.487-0.504C45.667,148.566,45.491,149.278,45.468,149.926z"/>
<path fill="#FFFFFF" d="M48.5,151.142v-4.766l0.92-0.168v4.846c0,0.247,0.096,0.327,0.279,0.327c0.104,0,0.208-0.008,0.296-0.032
	l0.128-0.031l0.112,0.583l-0.232,0.072c-0.151,0.04-0.359,0.072-0.615,0.072C48.78,152.045,48.5,151.677,48.5,151.142z"/>
<path fill="#FFFFFF" d="M54.09,153.788l-0.919-0.168v-2.095c-0.216,0.359-0.576,0.535-1.063,0.535c-1,0-1.472-0.783-1.472-1.982
	c0-1.216,0.784-2.111,1.911-2.111c0.32,0,0.695,0.064,1.008,0.12c0.176,0.032,0.352,0.072,0.535,0.112V153.788z M53.171,149.846
	v-1.144c-0.104-0.023-0.36-0.088-0.52-0.088c-0.792,0-1.023,0.584-1.023,1.384c0,0.735,0.056,1.407,0.631,1.407
	C52.779,151.405,53.171,150.638,53.171,149.846z"/>
<path fill="#FFFFFF" d="M57.49,148.031h0.92v2.055c0,0.64,0.096,1.063,0.191,1.327c0.057,0.16,0.128,0.288,0.2,0.376l-0.728,0.288
	c-0.056-0.057-0.112-0.137-0.168-0.225c-0.088-0.151-0.191-0.367-0.231-0.655c-0.288,0.615-0.84,0.863-1.416,0.863
	c-0.359,0-0.631-0.096-0.831-0.296c-0.224-0.224-0.336-0.584-0.336-1.079v-2.654h0.92v2.63c0,0.448,0.144,0.72,0.52,0.72
	c0.472,0,0.999-0.56,0.959-1.399V148.031z"/>
<path fill="#FFFFFF" d="M61.211,147.935c0.951,0,1.335,0.496,1.335,1.136c0,0.775-0.879,1.415-2.286,1.439
	c0.063,0.487,0.256,0.896,0.879,0.896c0.232,0,0.521-0.064,0.744-0.136c0.136-0.04,0.264-0.089,0.392-0.145l0.24,0.576
	c-0.137,0.071-0.288,0.128-0.448,0.184c-0.279,0.096-0.647,0.184-1.056,0.184c-1.239,0-1.727-0.775-1.727-1.95
	C59.284,148.687,60.124,147.935,61.211,147.935z M60.235,149.926c1-0.024,1.392-0.487,1.392-0.855c0-0.312-0.2-0.504-0.488-0.504
	C60.436,148.566,60.26,149.278,60.235,149.926z"/>
<path fill="#FFFFFF" d="M65.347,148.095c0.136,0.048,0.264,0.096,0.384,0.152l-0.28,0.631c-0.104-0.048-0.208-0.088-0.312-0.127
	c-0.184-0.064-0.424-0.137-0.624-0.137c-0.248,0-0.447,0.12-0.447,0.353c0,0.296,0.224,0.535,0.663,0.703
	c0.664,0.256,1.071,0.544,1.071,1.231c0,0.607-0.503,1.191-1.398,1.191c-0.353,0-0.712-0.096-0.976-0.192
	c-0.16-0.056-0.313-0.119-0.448-0.191l0.296-0.68c0.12,0.072,0.248,0.136,0.368,0.191c0.216,0.097,0.464,0.192,0.68,0.192
	c0.376,0,0.544-0.16,0.544-0.408c0-0.279-0.2-0.503-0.584-0.655c-0.823-0.312-1.151-0.664-1.151-1.295
	c0-0.608,0.584-1.12,1.352-1.12C64.803,147.935,65.114,148.007,65.347,148.095z"/>
<path fill="#FFFFFF" d="M69.635,152.013h-0.919v-2.015c0-0.64-0.104-1.063-0.2-1.327c-0.056-0.152-0.12-0.28-0.192-0.376
	l0.729-0.288c0.056,0.056,0.104,0.128,0.159,0.216c0.088,0.152,0.176,0.36,0.232,0.64c0.279-0.632,0.848-0.896,1.423-0.896
	c0.36,0,0.632,0.096,0.832,0.296c0.224,0.224,0.335,0.584,0.335,1.079v2.671h-0.919v-2.583c0-0.447-0.144-0.735-0.52-0.735
	c-0.472,0-1,0.528-0.96,1.367V152.013z"/>
<path fill="#FFFFFF" d="M76.37,149.974c0,1.191-0.6,2.119-1.823,2.119s-1.751-0.775-1.751-2.031c0-1.207,0.6-2.127,1.823-2.127
	C75.842,147.935,76.37,148.702,76.37,149.974z M73.787,149.981c0,0.792,0.16,1.432,0.84,1.432c0.607,0,0.751-0.592,0.751-1.359
	c0-0.8-0.159-1.439-0.839-1.439C73.931,148.614,73.787,149.214,73.787,149.981z"/>
<path fill="#FFFFFF" d="M76.732,148.031h0.72l0.159-0.936l0.76-0.168v1.104h0.983l-0.111,0.655h-0.872v2.351
	c0,0.28,0.176,0.328,0.36,0.328c0.151,0,0.304-0.024,0.423-0.056c0.072-0.017,0.137-0.032,0.2-0.057l0.152,0.607
	c-0.088,0.04-0.185,0.072-0.288,0.097c-0.184,0.056-0.439,0.088-0.735,0.088c-0.6,0-1.031-0.24-1.031-0.903v-2.455h-0.72V148.031z"
	/>
<path fill="#FFFFFF" d="M81.043,146.8c0,0.319-0.184,0.567-0.56,0.567c-0.344,0-0.535-0.248-0.535-0.544
	c0-0.327,0.184-0.575,0.56-0.575C80.852,146.248,81.043,146.479,81.043,146.8z M80.036,151.142v-3.11h0.919v3.022
	c0,0.247,0.072,0.312,0.225,0.312c0.039,0,0.096,0,0.136-0.008c0.023,0,0.048,0,0.071-0.009l0.097,0.584
	c-0.04,0.024-0.088,0.04-0.145,0.056c-0.096,0.032-0.239,0.057-0.432,0.057C80.34,152.045,80.036,151.677,80.036,151.142z"/>
<path fill="#FFFFFF" d="M85.458,149.974c0,1.191-0.6,2.119-1.823,2.119c-1.223,0-1.751-0.775-1.751-2.031
	c0-1.207,0.6-2.127,1.823-2.127S85.458,148.702,85.458,149.974z M82.876,149.981c0,0.792,0.159,1.432,0.839,1.432
	c0.608,0,0.752-0.592,0.752-1.359c0-0.8-0.16-1.439-0.84-1.439C83.02,148.614,82.876,149.214,82.876,149.981z"/>
<path fill="#FFFFFF" d="M87.251,152.013h-0.919v-2.015c0-0.64-0.104-1.063-0.2-1.327c-0.056-0.152-0.12-0.28-0.192-0.376
	l0.729-0.288c0.056,0.056,0.104,0.128,0.159,0.216c0.088,0.152,0.176,0.36,0.232,0.64c0.279-0.632,0.848-0.896,1.423-0.896
	c0.36,0,0.632,0.096,0.832,0.296c0.224,0.224,0.335,0.584,0.335,1.079v2.671H88.73v-2.583c0-0.447-0.144-0.735-0.52-0.735
	c-0.472,0-1,0.528-0.96,1.367V152.013z"/>
<path fill="#FFFFFF" d="M92.69,148.095c0.136,0.048,0.264,0.096,0.384,0.152l-0.279,0.631c-0.104-0.048-0.208-0.088-0.313-0.127
	c-0.184-0.064-0.424-0.137-0.623-0.137c-0.248,0-0.448,0.12-0.448,0.353c0,0.296,0.225,0.535,0.664,0.703
	c0.663,0.256,1.071,0.544,1.071,1.231c0,0.607-0.504,1.191-1.399,1.191c-0.352,0-0.712-0.096-0.976-0.192
	c-0.159-0.056-0.312-0.119-0.447-0.191l0.296-0.68c0.12,0.072,0.248,0.136,0.367,0.191c0.216,0.097,0.464,0.192,0.68,0.192
	c0.376,0,0.544-0.16,0.544-0.408c0-0.279-0.2-0.503-0.584-0.655c-0.823-0.312-1.151-0.664-1.151-1.295
	c0-0.608,0.584-1.12,1.352-1.12C92.147,147.935,92.459,148.007,92.69,148.095z"/>
<path fill="#FFFFFF" d="M97.675,147.935c0.951,0,1.335,0.496,1.335,1.136c0,0.775-0.879,1.415-2.286,1.439
	c0.063,0.487,0.256,0.896,0.879,0.896c0.232,0,0.521-0.064,0.744-0.136c0.136-0.04,0.264-0.089,0.392-0.145l0.24,0.576
	c-0.137,0.071-0.288,0.128-0.448,0.184c-0.279,0.096-0.647,0.184-1.056,0.184c-1.239,0-1.727-0.775-1.727-1.95
	C95.748,148.687,96.588,147.935,97.675,147.935z M96.699,149.926c1-0.024,1.392-0.487,1.392-0.855c0-0.312-0.2-0.504-0.488-0.504
	C96.899,148.566,96.724,149.278,96.699,149.926z"/>
<path fill="#FFFFFF" d="M100.763,152.013h-0.919v-2.015c0-0.64-0.104-1.063-0.2-1.327c-0.056-0.152-0.12-0.28-0.192-0.376
	l0.729-0.288c0.056,0.056,0.104,0.128,0.159,0.216c0.088,0.152,0.176,0.36,0.232,0.64c0.279-0.632,0.848-0.896,1.423-0.896
	c0.36,0,0.632,0.096,0.832,0.296c0.224,0.224,0.335,0.584,0.335,1.079v2.671h-0.919v-2.583c0-0.447-0.144-0.735-0.52-0.735
	c-0.472,0-1,0.528-0.96,1.367V152.013z"/>
<path fill="#FFFFFF" d="M106.164,151.142v-4.766l0.919-0.168v4.846c0,0.247,0.096,0.327,0.28,0.327c0.104,0,0.208-0.008,0.296-0.032
	l0.128-0.031l0.111,0.583l-0.231,0.072c-0.152,0.04-0.36,0.072-0.616,0.072C106.443,152.045,106.164,151.677,106.164,151.142z"/>
<path fill="#FFFFFF" d="M111.874,149.974c0,1.191-0.6,2.119-1.823,2.119s-1.751-0.775-1.751-2.031c0-1.207,0.6-2.127,1.823-2.127
	C111.346,147.935,111.874,148.702,111.874,149.974z M109.291,149.981c0,0.792,0.16,1.432,0.84,1.432
	c0.607,0,0.751-0.592,0.751-1.359c0-0.8-0.159-1.439-0.839-1.439C109.435,148.614,109.291,149.214,109.291,149.981z"/>
<path fill="#FFFFFF" d="M115.106,151.229c-0.184,0.543-0.56,0.831-1.199,0.831c-1,0-1.472-0.783-1.472-1.982
	c0-1.216,0.784-2.111,1.911-2.111c0.528,0,1.207,0.152,1.439,0.216l0.128,0.017l-0.04,2.19c-0.024,0.632,0.248,1.039,0.248,1.679
	c0,1.184-0.72,1.76-1.808,1.671c-0.344-0.023-0.647-0.096-0.879-0.184c-0.136-0.04-0.264-0.088-0.384-0.144l0.224-0.704
	c0.439,0.168,0.695,0.272,1.039,0.304c0.92,0.089,1.128-0.751,0.832-1.671C115.122,151.31,115.131,151.27,115.106,151.229z
	 M114.971,149.91v-1.208c-0.104-0.023-0.36-0.088-0.52-0.088c-0.792,0-1.023,0.584-1.023,1.384c0,0.735,0.056,1.415,0.631,1.415
	C114.563,151.413,114.946,150.669,114.971,149.91z"/>
<path fill="#FFFFFF" d="M117.899,146.8c0,0.319-0.184,0.567-0.56,0.567c-0.344,0-0.536-0.248-0.536-0.544
	c0-0.327,0.184-0.575,0.56-0.575C117.707,146.248,117.899,146.479,117.899,146.8z M116.892,151.142v-3.11h0.92v3.022
	c0,0.247,0.071,0.312,0.224,0.312c0.04,0,0.096,0,0.136-0.008c0.024,0,0.048,0,0.072-0.009l0.096,0.584
	c-0.04,0.024-0.088,0.04-0.144,0.056c-0.096,0.032-0.24,0.057-0.432,0.057C117.195,152.045,116.892,151.677,116.892,151.142z"/>
<path fill="#FFFFFF" d="M121.139,148.975c-0.16-0.185-0.305-0.328-0.568-0.328c-0.327,0-0.839,0.112-0.839,1.352
	c0,1.247,0.503,1.407,0.879,1.407c0.152,0,0.336-0.04,0.496-0.08c0.096-0.024,0.191-0.048,0.279-0.08l0.225,0.584
	c-0.088,0.048-0.192,0.088-0.313,0.119c-0.199,0.064-0.472,0.12-0.815,0.12c-1.231,0-1.743-0.775-1.743-1.95
	c0-1.407,0.8-2.184,1.831-2.184c0.504,0,0.84,0.2,1.088,0.544L121.139,148.975z"/>
<path fill="#FFFFFF" d="M123.234,146.8c0,0.319-0.184,0.567-0.56,0.567c-0.344,0-0.535-0.248-0.535-0.544
	c0-0.327,0.184-0.575,0.56-0.575C123.043,146.248,123.234,146.479,123.234,146.8z M122.228,151.142v-3.11h0.919v3.022
	c0,0.247,0.072,0.312,0.225,0.312c0.039,0,0.096,0,0.136-0.008c0.023,0,0.048,0,0.071-0.009l0.097,0.584
	c-0.04,0.024-0.088,0.04-0.145,0.056c-0.096,0.032-0.239,0.057-0.432,0.057C122.531,152.045,122.228,151.677,122.228,151.142z"/>
<path fill="#FFFFFF" d="M126.003,147.935c0.951,0,1.335,0.496,1.335,1.136c0,0.775-0.88,1.415-2.287,1.439
	c0.064,0.487,0.256,0.896,0.88,0.896c0.231,0,0.52-0.064,0.743-0.136c0.136-0.04,0.264-0.089,0.392-0.145l0.24,0.576
	c-0.136,0.071-0.288,0.128-0.447,0.184c-0.28,0.096-0.648,0.184-1.056,0.184c-1.239,0-1.728-0.775-1.728-1.95
	C124.075,148.687,124.915,147.935,126.003,147.935z M125.027,149.926c0.999-0.024,1.391-0.487,1.391-0.855
	c0-0.312-0.199-0.504-0.487-0.504C125.227,148.566,125.051,149.278,125.027,149.926z"/>
<path fill="#FFFFFF" d="M128.06,151.142v-4.766l0.92-0.168v4.846c0,0.247,0.096,0.327,0.279,0.327c0.104,0,0.208-0.008,0.296-0.032
	l0.128-0.031l0.112,0.583l-0.232,0.072c-0.151,0.04-0.359,0.072-0.615,0.072C128.34,152.045,128.06,151.677,128.06,151.142z"/>
<path fill="#FFFFFF" d="M135.362,147.991c0,0.631-0.488,0.936-0.815,1.087c0.671,0.2,1.047,0.768,1.047,1.352
	c0,0.808-0.447,1.631-1.854,1.631c-0.48,0-1.016-0.191-1.504-0.416l0.272-0.671c0.487,0.216,0.823,0.384,1.199,0.384
	c0.479,0,0.943-0.296,0.943-0.912c0-0.479-0.336-0.815-0.712-0.815c-0.359,0-0.735,0.096-0.775,0.096l-0.256-0.631l0.024,0.008
	c-0.009,0-0.017-0.008-0.024-0.008c0.8-0.256,1.487-0.433,1.487-1.008c0-0.328-0.216-0.504-0.592-0.504
	c-0.399,0-0.655,0.128-1.151,0.32l-0.312-0.632c0.527-0.232,0.943-0.392,1.591-0.392
	C134.866,146.88,135.362,147.327,135.362,147.991z"/>
<path fill="#FFFFFF" d="M136.516,146.6h0.16c0.176,0,0.352,0,0.52-0.008c0.288,0,0.64-0.008,0.896-0.008
	c1.814,0,2.662,0.919,2.662,2.687c0,1.783-0.855,2.758-2.767,2.758c-0.327,0-0.64,0-0.887-0.008c-0.137,0-0.272,0-0.4-0.008h-0.184
	V146.6z M137.475,147.312v3.989c0.12,0.009,0.28,0.009,0.624,0.009c1.119,0,1.615-0.664,1.615-1.951
	c0-1.239-0.472-2.055-1.735-2.055C137.73,147.304,137.579,147.312,137.475,147.312z"/>
<path fill="#FFFFFF" d="M145.387,146.208l0.496,0.552c-0.472,0.384-1.271,1.391-1.271,3.11c0,1.727,0.8,2.734,1.271,3.118
	l-0.496,0.552c-0.584-0.408-1.688-1.583-1.688-3.678C143.699,147.799,144.803,146.615,145.387,146.208z"/>
<path fill="#FFFFFF" d="M146.764,146.6h0.16c0.199,0,0.384,0,0.567-0.008c0.312,0,0.664-0.008,0.88-0.008
	c1.239,0,1.902,0.512,1.902,1.407c0,0.52-0.312,0.951-0.823,1.207c0.64,0.248,0.991,0.712,0.991,1.295
	c0,0.92-0.695,1.527-2.103,1.527h-0.912c-0.167,0-0.327,0-0.479-0.008h-0.184V146.6z M147.723,147.279v1.623h0.608
	c0.663,0,0.927-0.344,0.927-0.8c0-0.415-0.231-0.831-1.007-0.831C148.027,147.271,147.851,147.271,147.723,147.279z M147.723,149.59
	v1.735h0.68c0.728,0,1.008-0.36,1.008-0.848c0-0.447-0.248-0.896-1.096-0.896C148.066,149.582,147.875,149.582,147.723,149.59z"/>
<path fill="#FFFFFF" d="M151.203,151.142v-4.766l0.92-0.168v4.846c0,0.247,0.096,0.327,0.279,0.327c0.104,0,0.208-0.008,0.296-0.032
	l0.128-0.031l0.112,0.583l-0.232,0.072c-0.151,0.04-0.359,0.072-0.615,0.072C151.483,152.045,151.203,151.677,151.203,151.142z"/>
<path fill="#FFFFFF" d="M155.267,147.935c0.951,0,1.335,0.496,1.335,1.136c0,0.775-0.88,1.415-2.287,1.439
	c0.064,0.487,0.256,0.896,0.88,0.896c0.232,0,0.52-0.064,0.744-0.136c0.136-0.04,0.264-0.089,0.392-0.145l0.239,0.576
	c-0.136,0.071-0.287,0.128-0.447,0.184c-0.28,0.096-0.647,0.184-1.056,0.184c-1.239,0-1.727-0.775-1.727-1.95
	C153.34,148.687,154.179,147.935,155.267,147.935z M154.291,149.926c0.999-0.024,1.392-0.487,1.392-0.855
	c0-0.312-0.2-0.504-0.488-0.504C154.491,148.566,154.314,149.278,154.291,149.926z"/>
<path fill="#FFFFFF" d="M158.354,152.013h-0.919v-2.015c0-0.64-0.104-1.063-0.2-1.327c-0.056-0.152-0.12-0.28-0.191-0.376
	l0.728-0.288c0.056,0.056,0.104,0.128,0.159,0.216c0.089,0.152,0.177,0.36,0.232,0.64c0.279-0.632,0.848-0.896,1.423-0.896
	c0.36,0,0.632,0.096,0.832,0.296c0.224,0.224,0.336,0.584,0.336,1.079v2.671h-0.92v-2.583c0-0.447-0.144-0.735-0.52-0.735
	c-0.472,0-0.999,0.528-0.96,1.367V152.013z"/>
<path fill="#FFFFFF" d="M164.634,152.077c-0.064-0.072-0.128-0.152-0.185-0.248c-0.096-0.16-0.199-0.408-0.224-0.728
	c-0.184,0.64-0.56,0.959-1.239,0.959c-0.999,0-1.471-0.783-1.471-1.982c0-1.216,0.783-2.111,1.91-2.111
	c0.192,0,0.408,0.024,0.624,0.056v-1.807l0.92,0.16v3.71c0,0.64,0.096,1.063,0.191,1.327c0.056,0.152,0.128,0.279,0.2,0.376
	L164.634,152.077z M164.05,149.846v-1.144c-0.104-0.023-0.359-0.088-0.52-0.088c-0.792,0-1.023,0.584-1.023,1.384
	c0,0.735,0.056,1.407,0.632,1.407C163.658,151.405,164.05,150.638,164.05,149.846z"/>
<path fill="#FFFFFF" d="M167.73,147.935c0.951,0,1.335,0.496,1.335,1.136c0,0.775-0.88,1.415-2.287,1.439
	c0.064,0.487,0.256,0.896,0.88,0.896c0.231,0,0.52-0.064,0.743-0.136c0.137-0.04,0.265-0.089,0.393-0.145l0.239,0.576
	c-0.136,0.071-0.287,0.128-0.447,0.184c-0.28,0.096-0.647,0.184-1.056,0.184c-1.239,0-1.727-0.775-1.727-1.95
	C165.804,148.687,166.643,147.935,167.73,147.935z M166.755,149.926c0.999-0.024,1.391-0.487,1.391-0.855
	c0-0.312-0.199-0.504-0.487-0.504C166.955,148.566,166.778,149.278,166.755,149.926z"/>
<path fill="#FFFFFF" d="M170.818,149.806v2.207h-0.919v-2.015c0-0.64-0.104-1.063-0.2-1.327c-0.056-0.152-0.12-0.28-0.191-0.376
	l0.728-0.288l0.151,0.216c0.088,0.152,0.176,0.336,0.232,0.616c0.216-0.608,0.64-0.864,1.151-0.864c0.12,0,0.248,0.024,0.344,0.048
	l0.151,0.04l-0.256,0.896c-0.031-0.008-0.063-0.023-0.104-0.04c-0.064-0.023-0.16-0.048-0.288-0.048
	C171.234,148.87,170.875,149.23,170.818,149.806z"/>
<path fill="#FFFFFF" d="M173.14,153.54l-0.496-0.552c0.472-0.384,1.271-1.392,1.271-3.118c0-1.72-0.8-2.727-1.271-3.11l0.496-0.552
	c0.583,0.407,1.687,1.591,1.687,3.654C174.826,151.957,173.723,153.132,173.14,153.54z"/>
</svg>
