<?xml version="1.0" encoding="utf-8"?>
<!-- Generator: Adobe Illustrator 14.0.0, SVG Export Plug-In . SVG Version: 6.00 Build 43363)  -->
<!DOCTYPE svg PUBLIC "-//W3C//DTD SVG 1.1//EN" "http://www.w3.org/Graphics/SVG/1.1/DTD/svg11.dtd">
<svg version="1.1" id="Calque_1" xmlns="http://www.w3.org/2000/svg" xmlns:xlink="http://www.w3.org/1999/xlink" x="0px" y="0px"
	 width="101.4px" height="100px" viewBox="0 0 101.4 100" style="enable-background:new 0 0 101.4 100;" xml:space="preserve">
<style type="text/css">
<![CDATA[
	.st0{fill:#FFD309;}
	.st1{fill-rule:evenodd;clip-rule:evenodd;fill:#FCFCFC;}
]]>
</style>
<g>
	<circle class="st0" cx="50.7" cy="50" r="36"/>
	<path class="st1" d="M63.9,40.8c-1.4,1.5-1.9,2.5-3.6,2.6c-4.7,0.4-5.7-7.7-1.7-8.6C62,34,64.4,37,63.9,40.8z"/>
	<path class="st1" d="M44.7,59.8c3.7,7.8,17.6,7,19.2-2.2c0.3-1.8-0.7-3.8,0.2-5.8c2.3,0.8,2.1,4.3,1.9,6c-0.7,6.2-6.9,11-13.7,10.3
		c-4.2-0.4-7-3.3-10.1-5.5c-2.8,1.2-3.2,6.1-6.2,6.2c-0.7-3.7,4.1-5.5,4.3-8.4c0.1-1.6-1.8-3.7-2.6-5.8c-1.3-3.1-2.1-6.5-2.4-10.6
		c-0.4-5.3,0.4-14.2,8.2-13c4.8,0.8,8.2,8.6,7.9,14.2C51.1,51.8,47.5,55.8,44.7,59.8z M48.8,40.8c-0.4-2.3-2.9-6.7-5-7.2
		c-4.1-0.9-5.2,3.5-5.5,6.5c-0.7,7.2,2.2,13.7,4.8,17.5C44.6,54.2,50.1,47.7,48.8,40.8z"/>
</g>
</svg>
